<?xml version="1.0" standalone="no"?>
<!DOCTYPE svg PUBLIC "-//W3C//DTD SVG 20010904//EN"
 "http://www.w3.org/TR/2001/REC-SVG-20010904/DTD/svg10.dtd">
<svg version="1.0" xmlns="http://www.w3.org/2000/svg"
 width="591.000000pt" height="600.000000pt" viewBox="0 0 591.000000 600.000000"
 preserveAspectRatio="xMidYMid meet">
<g transform="translate(0.000000,600.000000) scale(0.100000,-0.100000)"
fill="currentColor" stroke="none">
<path d="M2720 5974 c-325 -36 -592 -100 -846 -202 -1024 -412 -1726 -1346
-1849 -2462 -19 -174 -19 -488 0 -655 93 -800 472 -1497 1082 -1988 439 -353
983 -579 1544 -642 177 -20 505 -19 667 1 1114 137 2042 870 2417 1909 87 241
165 602 165 764 0 71 -10 97 -12 31 -1 -17 -4 -27 -7 -22 -6 9 -6 451 -1 517
3 27 3 27 10 -10 6 -34 7 -28 9 35 2 148 -62 467 -144 715 -148 443 -367 810
-674 1127 -446 462 -979 741 -1630 855 -128 22 -179 26 -421 28 -151 2 -291 1
-310 -1z m155 -25 c18 -9 18 -9 -4 -5 -13 3 -34 1 -47 -4 -30 -12 -32 -2 -1
10 27 11 27 11 52 -1z m65 7 c0 -2 -9 -6 -20 -9 -11 -3 -18 -1 -14 4 5 9 34
13 34 5z m37 -2 c-3 -3 -12 -4 -19 -1 -8 3 -5 6 6 6 11 1 17 -2 13 -5z m88 -4
c3 -6 -1 -7 -9 -4 -18 7 -21 14 -7 14 6 0 13 -4 16 -10z m80 0 c-3 -5 -12 -10
-18 -10 -7 0 -6 4 3 10 19 12 23 12 15 0z m-394 -12 c-19 -5 -38 -5 -42 -1 -5
5 10 9 34 10 l42 1 -34 -10z m436 6 c-3 -3 -12 -4 -19 -1 -8 3 -5 6 6 6 11 1
17 -2 13 -5z m50 0 c-3 -3 -12 -4 -19 -1 -8 3 -5 6 6 6 11 1 17 -2 13 -5z
m-579 -11 c-10 -2 -26 -2 -35 0 -10 3 -2 5 17 5 19 0 27 -2 18 -5z m660 0
c-10 -2 -28 -2 -40 0 -13 2 -5 4 17 4 22 1 32 -1 23 -4z m-777 -19 c-24 -7
-47 -11 -52 -8 -5 3 -17 0 -27 -5 -14 -7 -19 -6 -19 2 0 7 12 13 26 12 14 0
40 2 56 6 52 12 62 8 16 -7z m869 6 c8 -5 11 -10 5 -10 -5 0 -17 5 -25 10 -8
5 -10 10 -5 10 6 0 17 -5 25 -10z m-160 -15 c285 -28 533 -88 799 -195 116
-46 299 -135 376 -183 180 -111 301 -198 420 -301 38 -34 83 -72 99 -86 60
-52 233 -249 316 -361 328 -438 531 -978 581 -1539 15 -170 6 -536 -16 -680
-51 -327 -150 -650 -276 -901 -47 -96 -139 -259 -144 -259 -2 0 -21 33 -42 73
l-40 72 5 102 c4 93 13 125 25 91 2 -7 8 -10 12 -5 5 4 -1 17 -12 30 -14 15
-22 42 -27 89 -3 36 -15 99 -26 140 -10 40 -22 84 -25 98 -9 35 71 -89 116
-180 36 -73 52 -129 63 -220 6 -44 5 -44 -9 -20 -15 24 -15 23 -8 -20 4 -25 7
-60 7 -77 0 -18 3 -33 7 -33 13 0 19 45 19 146 0 126 -28 243 -104 430 -48
119 -51 133 -38 152 18 27 102 353 102 396 0 17 7 53 15 80 8 27 15 56 15 64
0 8 -31 44 -69 79 l-69 64 55 127 c30 70 96 222 148 337 51 116 95 220 98 233
16 69 -45 142 -118 142 -79 0 -93 -13 -156 -145 -66 -139 -283 -630 -293 -662
-4 -11 -13 -26 -21 -33 -18 -15 -59 30 -127 142 -48 79 -122 187 -235 343 -43
59 -55 86 -77 172 -35 138 -113 371 -175 522 l-50 125 22 15 c12 8 34 27 50
41 29 25 29 26 17 90 -6 36 -18 90 -28 120 -10 34 -16 91 -17 150 l0 95 -80
53 c-78 52 -81 55 -110 130 -29 73 -32 77 -70 85 -22 5 -65 6 -95 3 -50 -4
-59 -2 -94 25 -22 16 -47 29 -56 29 -12 0 -19 11 -23 33 -15 96 -118 228 -207
266 -28 12 -59 19 -69 16 -20 -6 -72 30 -70 48 4 31 -4 48 -41 90 -78 89 -196
147 -326 162 -63 7 -172 -7 -212 -27 -20 -10 -26 -8 -50 20 -16 18 -44 35 -67
41 -66 18 -196 13 -266 -9 -56 -17 -64 -17 -74 -4 -26 37 -218 27 -348 -17
-159 -54 -290 -152 -271 -202 4 -12 -15 -27 -85 -61 -52 -27 -93 -42 -96 -36
-12 20 -82 10 -146 -22 -136 -67 -290 -265 -294 -378 -1 -38 -7 -51 -43 -88
-48 -49 -83 -113 -107 -196 -22 -74 -18 -215 6 -242 11 -12 18 -44 21 -90 4
-48 12 -84 27 -110 l22 -40 -44 -119 c-104 -281 -165 -517 -182 -710 -10 -108
-58 -229 -141 -357 -36 -57 -74 -114 -83 -128 -8 -14 -36 -65 -62 -113 -39
-75 -58 -98 -119 -150 -111 -93 -199 -233 -225 -357 -9 -46 7 -29 29 30 23 62
101 166 164 218 29 24 52 40 52 35 0 -5 -4 -13 -10 -19 -29 -29 -102 -290
-121 -429 -10 -80 -7 -231 6 -243 2 -3 12 1 20 8 13 11 20 9 43 -12 34 -32 92
-71 97 -67 2 2 -1 29 -7 59 -16 86 -4 347 22 465 32 150 98 347 123 368 12 10
53 44 90 74 38 31 73 65 79 76 5 10 -19 -5 -54 -35 -34 -29 -78 -64 -97 -77
-31 -22 -33 -23 -22 -3 6 11 33 36 59 56 62 45 192 181 192 201 0 28 17 15 24
-17 9 -46 58 -118 121 -177 l55 -52 -21 -107 c-56 -291 -147 -620 -184 -664
-26 -31 -45 -86 -45 -133 0 -16 -37 -127 -81 -245 -45 -118 -100 -270 -124
-338 l-43 -122 -53 72 c-88 121 -93 130 -152 224 -208 339 -343 727 -403 1154
-25 174 -25 566 0 739 29 210 69 384 129 571 356 1094 1323 1870 2472 1985
176 17 380 17 555 0z m248 1 c9 -9 -31 -6 -53 5 -16 7 -13 8 13 5 19 -3 36 -7
40 -10z m-1084 -16 c-10 -4 -26 -5 -34 -2 -11 4 -8 8 10 12 31 8 51 -1 24 -10z
m1126 10 c8 -5 11 -10 5 -10 -5 0 -17 5 -25 10 -8 5 -10 10 -5 10 6 0 17 -5
25 -10z m-1211 -13 c-15 -13 -69 -34 -69 -27 0 5 12 13 28 18 28 11 49 15 41
9z m1366 -23 c23 -10 25 -12 8 -10 -12 1 -26 5 -29 9 -4 4 -17 7 -28 7 -12 0
-28 5 -36 11 -20 14 44 2 85 -17z m-1448 -10 c-3 -3 -12 -4 -19 -1 -8 3 -5 6
6 6 11 1 17 -2 13 -5z m1515 -8 c7 4 8 2 4 -4 -4 -6 -13 -9 -21 -6 -8 4 -12
11 -8 17 5 8 8 7 11 -1 2 -7 9 -9 14 -6z m-1552 -2 c0 -8 -19 -13 -24 -6 -3 5
1 9 9 9 8 0 15 -2 15 -3z m-64 -16 c-10 -6 -22 -6 -26 -2 -5 5 3 10 18 11 22
1 24 0 8 -9z m1684 -2 c-6 -6 -18 -5 -32 1 -21 10 -21 10 9 9 19 -1 28 -5 23
-10z m-1750 -16 c-20 -13 -33 -13 -25 0 3 6 14 10 23 10 15 0 15 -2 2 -10z
m1800 0 c0 -5 -5 -10 -11 -10 -5 0 -7 5 -4 10 3 6 8 10 11 10 2 0 4 -4 4 -10z
m40 -4 c0 -11 -19 -15 -25 -6 -3 5 1 10 9 10 9 0 16 -2 16 -4z m-1910 -26
c-24 -15 -37 -11 -16 5 11 8 22 12 25 9 3 -3 -1 -9 -9 -14z m1953 7 c4 3 7 1
7 -5 0 -14 -2 -14 -24 -6 -9 3 -16 11 -16 16 0 7 5 6 13 -1 8 -6 17 -8 20 -4z
m-2026 -22 c0 -8 -4 -12 -9 -9 -4 3 -8 0 -8 -5 0 -6 -7 -11 -16 -11 -12 0 -11
5 7 20 13 10 24 19 25 20 0 0 1 -7 1 -15z m33 5 c0 -5 -5 -10 -11 -10 -5 0 -7
5 -4 10 3 6 8 10 11 10 2 0 4 -4 4 -10z m2086 -20 c6 0 19 -7 30 -15 17 -13
15 -13 -18 -3 -21 6 -38 15 -38 20 0 5 -4 7 -8 4 -5 -3 -9 1 -9 9 0 13 3 13
17 0 9 -8 21 -15 26 -15z m-2240 -45 c-10 -8 -22 -12 -27 -10 -4 3 -10 1 -14
-5 -3 -5 -11 -10 -18 -10 -6 0 -2 6 8 14 11 8 23 12 27 10 4 -2 9 0 13 6 3 5
12 10 18 10 7 0 3 -7 -7 -15z m668 -10 l23 -25 49 22 c105 47 338 31 346 -25
2 -16 11 -23 31 -25 22 -3 27 -7 22 -22 -12 -39 -25 -138 -25 -196 l0 -61 -30
5 c-17 2 -32 7 -34 11 -3 4 4 45 14 92 22 96 24 107 12 94 -5 -6 -17 -47 -27
-92 -10 -45 -21 -85 -24 -90 -3 -4 -47 -7 -97 -5 l-91 3 3 47 c3 35 2 42 -5
27 -5 -11 -10 -32 -10 -46 -1 -25 -4 -27 -63 -31 -35 -3 -65 -3 -68 -1 -3 3
-7 59 -10 126 l-5 122 -8 -110 c-12 -160 -6 -148 -83 -163 -36 -7 -79 -19 -94
-27 -46 -24 -55 -19 -69 35 -7 28 -17 50 -22 50 -9 0 -4 -34 12 -78 5 -13 9
-25 9 -27 0 -2 -19 -6 -42 -10 -24 -4 -65 -16 -92 -26 -49 -18 -50 -18 -65 3
-9 12 -35 58 -58 102 -53 103 -55 85 -3 -29 22 -48 40 -93 40 -99 0 -7 -23
-23 -52 -37 -28 -13 -81 -43 -116 -66 -36 -24 -66 -43 -67 -43 -1 0 -17 50
-35 110 -18 61 -37 110 -42 110 -10 0 -13 12 26 -119 l35 -113 -32 -27 c-18
-14 -50 -42 -72 -63 l-40 -36 -23 34 c-12 19 -27 34 -33 34 -11 0 -7 -10 24
-52 l20 -27 -58 -68 c-31 -37 -60 -69 -64 -71 -4 -1 -37 23 -74 53 -36 30 -70
55 -74 55 -4 0 23 -31 61 -69 l69 -69 -37 -61 -37 -61 -29 15 c-33 17 -40 18
-40 7 0 -4 14 -13 30 -21 l30 -13 -39 -71 -40 -72 -55 -3 c-70 -4 -74 -22 -6
-22 49 0 59 -7 41 -25 -6 -6 -24 -46 -41 -90 -18 -44 -35 -84 -40 -88 -15 -17
-40 74 -40 148 0 58 -3 75 -14 75 -21 0 -30 35 -29 112 2 117 45 220 128 305
47 47 53 58 44 74 -8 15 -6 33 6 70 37 109 158 247 267 302 61 31 96 34 113
11 10 -14 25 -9 128 46 112 59 116 62 111 89 -5 24 1 34 38 65 97 85 268 143
426 145 66 1 75 -1 96 -24z m1706 -6 l25 -20 -35 17 c-43 20 -47 24 -29 24 8
0 25 -10 39 -21z m-980 -20 c90 -14 178 -59 244 -124 45 -44 56 -62 56 -88 1
-26 10 -39 48 -70 41 -33 48 -35 59 -21 10 14 15 14 55 -4 107 -47 227 -248
183 -306 -13 -17 -20 -17 -78 -7 -35 6 -78 11 -97 11 -28 0 -31 2 -20 15 7 9
10 18 7 21 -3 3 -12 -3 -19 -15 -7 -12 -18 -21 -25 -21 -7 0 -13 -5 -13 -11 0
-6 -22 8 -49 30 l-49 41 44 102 c41 94 50 126 27 96 -5 -7 -24 -47 -43 -88
-18 -41 -36 -79 -41 -84 -6 -7 -109 48 -109 59 0 1 22 40 50 85 27 46 47 86
43 89 -3 4 -8 0 -10 -7 -3 -8 -27 -47 -55 -88 l-49 -74 -52 26 c-28 15 -79 37
-112 50 -33 12 -59 26 -59 31 6 33 36 124 40 120 3 -3 1 -22 -5 -43 -13 -47
-7 -58 7 -12 15 49 22 108 13 108 -10 0 -45 -79 -60 -136 l-11 -41 -68 18
c-37 9 -80 20 -95 24 l-29 6 7 72 c9 88 30 216 38 223 6 7 91 21 132 23 17 0
59 -4 95 -10z m1056 -10 c6 -5 14 -6 18 -2 4 4 4 0 1 -10 -6 -15 -9 -15 -22
-2 -8 9 -18 13 -23 10 -4 -3 -10 2 -13 10 -6 14 16 11 39 -6z m-2566 -3 c-14
-17 -79 -41 -87 -32 -4 3 8 9 25 12 17 4 37 13 43 20 6 8 16 14 21 14 6 0 5
-6 -2 -14z m2647 -46 c3 -10 2 -11 -4 -4 -4 6 -15 14 -23 17 -11 5 -9 6 4 4
11 -1 21 -9 23 -17z m-2732 -8 c-3 -3 -11 0 -18 7 -9 10 -8 11 6 5 10 -3 15
-9 12 -12z m2861 -63 c3 -5 10 -6 16 -3 6 4 8 2 4 -4 -3 -6 8 -15 29 -22 19
-6 39 -18 43 -26 5 -9 15 -16 23 -18 18 -2 106 -66 91 -66 -6 0 -43 22 -84 48
-40 26 -91 59 -113 72 -22 13 -43 29 -47 34 -4 6 -8 7 -8 3 0 -4 -10 1 -22 13
-12 11 -28 20 -35 20 -8 0 -11 4 -8 10 6 9 99 -42 111 -61z m-2887 57 c-2 -2
-15 -9 -29 -15 -24 -11 -24 -11 -6 3 16 13 49 24 35 12z m-59 -43 c0 -3 -6 -3
-14 0 -8 3 -16 3 -18 -1 -5 -12 -177 -122 -190 -122 -7 0 3 10 22 22 80 49
146 93 158 105 11 11 42 8 42 -4z m-230 -138 c0 -2 -19 -15 -41 -27 -72 -40
-79 -45 -72 -51 3 -4 -1 -7 -11 -7 -9 0 -14 -4 -11 -10 3 -5 2 -10 -3 -10 -5
0 -18 -8 -30 -17 -11 -10 -31 -27 -44 -38 -19 -16 -48 -29 -48 -21 0 1 24 20
53 41 28 22 59 48 67 58 8 9 40 33 70 51 54 34 70 41 70 31z m3456 -61 c21
-16 48 -39 60 -50 13 -12 25 -20 28 -18 3 2 4 1 2 -2 -6 -8 17 -33 25 -28 3 2
27 -19 52 -46 55 -59 50 -66 -8 -12 -23 20 -63 55 -89 77 -27 22 -61 51 -75
65 -14 14 -37 30 -51 37 -23 11 -24 12 -3 9 13 -1 39 -15 59 -32z m-1806 -25
c241 -48 392 -129 558 -297 45 -47 82 -93 82 -102 0 -12 -11 -20 -34 -24 -19
-4 -47 -20 -63 -36 -51 -52 -70 -46 -148 50 -83 103 -136 160 -149 160 -6 0 6
-17 25 -37 84 -89 162 -219 139 -233 -7 -4 0 -18 23 -41 23 -23 44 -63 65
-122 18 -48 32 -94 32 -102 0 -8 5 -17 11 -21 13 -8 4 43 -17 95 -8 19 -13 36
-10 38 2 2 19 -12 37 -30 l34 -34 -13 -79 c-20 -127 -16 -141 48 -187 30 -21
69 -48 87 -58 17 -11 34 -31 37 -44 8 -30 9 -437 2 -625 -4 -99 -3 -123 4 -90
5 25 13 189 16 365 6 286 8 316 21 281 22 -66 28 -69 114 -62 69 6 77 4 95
-15 10 -12 42 -34 70 -50 l51 -29 11 -98 c7 -53 16 -149 22 -212 23 -254 86
-597 139 -757 15 -45 23 -79 19 -77 -13 8 -125 227 -166 324 -43 101 -86 231
-97 293 -5 23 -11 35 -17 29 -5 -5 -5 -20 2 -36 8 -22 6 -35 -10 -67 -11 -21
-22 -39 -23 -39 -1 0 -2 49 -2 109 0 91 2 106 12 88 15 -27 16 -7 3 48 -6 22
-24 126 -40 230 -34 215 -39 239 -46 232 -3 -3 7 -87 21 -188 47 -322 42 -612
-15 -989 l-19 -125 4 355 c2 287 1 328 -6 215 -5 -77 -10 -306 -12 -510 -2
-397 4 -474 48 -613 29 -93 14 -82 -19 13 -14 39 -25 64 -25 57 -4 -64 135
-330 207 -397 42 -39 13 -30 -76 24 -45 27 -83 46 -86 44 -11 -11 -102 147
-134 232 -36 95 -62 225 -62 313 0 28 -4 52 -10 52 -5 0 -10 -2 -10 -5 0 -79
45 -468 59 -514 10 -33 17 -61 14 -61 -12 0 -67 145 -93 247 -35 137 -56 280
-68 463 -14 202 -13 209 12 290 13 41 28 91 34 110 8 28 10 4 13 -120 l2 -155
9 175 c5 96 15 232 21 303 7 70 10 127 6 127 -3 0 -13 -54 -22 -120 -19 -131
-69 -310 -124 -438 -43 -100 -58 -114 -32 -30 34 109 50 238 55 453 4 147 10
224 21 258 23 74 10 66 -21 -13 -26 -66 -163 -286 -173 -276 -2 2 10 29 27 59
118 209 182 583 153 890 -11 123 -18 69 -15 -118 3 -132 0 -185 -8 -185 -6 0
-28 9 -49 19 -35 18 -39 25 -50 82 -14 69 -79 272 -118 363 -37 90 -119 250
-166 325 -101 163 -268 352 -380 429 -74 52 -55 23 25 -38 142 -108 306 -323
422 -553 68 -136 160 -373 150 -389 -3 -5 1 -17 9 -26 12 -14 47 -129 47 -156
0 -10 -73 32 -175 102 l-80 54 56 -6 c30 -3 71 -8 90 -12 25 -4 30 -3 19 5 -8
5 -55 16 -105 23 -88 12 -91 13 -160 72 -102 86 -227 218 -305 321 -60 79 -73
105 -108 211 -39 117 -128 311 -138 301 -3 -3 7 -29 21 -58 91 -178 182 -511
209 -764 13 -118 13 -120 -8 -138 l-21 -19 23 5 c22 5 22 4 21 -106 -1 -96 -2
-106 -10 -67 -21 102 -42 182 -79 300 -21 69 -50 188 -65 265 -14 77 -30 144
-35 149 -13 13 -13 9 5 -66 8 -35 23 -112 34 -173 11 -60 31 -172 45 -247 14
-76 26 -155 26 -176 0 -23 12 -63 30 -98 16 -32 27 -60 25 -62 -1 -2 -17 17
-35 42 -17 25 -33 46 -36 46 -10 0 27 -58 75 -118 28 -34 51 -64 51 -67 0 -3
-15 -4 -32 -4 -46 2 -172 -21 -179 -33 -10 -16 -172 166 -223 253 -60 100
-117 242 -154 382 -15 56 -28 92 -30 80 -4 -25 48 -207 90 -313 46 -118 173
-372 203 -408 49 -59 20 -44 -57 27 -125 117 -226 283 -278 458 -14 46 -28 83
-32 83 -8 0 3 -43 42 -165 15 -49 40 -130 55 -180 15 -49 40 -116 56 -147 16
-32 27 -58 25 -58 -6 0 -69 90 -99 142 -24 42 -25 47 -9 51 13 4 13 5 -4 6
-16 1 -28 16 -48 61 -56 124 -106 300 -128 450 -17 122 -14 416 6 515 17 87
20 123 6 89 -13 -32 -38 -200 -46 -301 -4 -52 -1 -162 6 -255 15 -187 9 -254
-44 -529 l-33 -166 -42 -38 c-52 -47 -90 -98 -67 -89 9 3 16 10 16 14 0 5 19
23 42 41 l41 33 -6 -34 c-4 -19 -24 -96 -44 -170 -37 -134 -38 -134 -45 -91
-17 101 -39 384 -37 489 1 62 -1 116 -5 119 -12 13 -6 -399 9 -538 8 -79 18
-157 21 -172 3 -16 1 -34 -7 -43 -10 -12 -10 -15 1 -12 9 2 18 -29 31 -106 25
-142 73 -331 104 -408 14 -34 23 -63 21 -65 -14 -14 -184 312 -216 412 -29 91
-31 58 -10 -140 9 -78 30 -168 55 -227 7 -17 5 -17 -29 -3 -20 9 -63 18 -95
22 l-60 6 -29 66 c-33 74 -68 222 -78 330 -7 75 -20 90 -16 18 4 -62 49 -328
67 -399 15 -59 -16 -25 -59 65 -86 178 -136 416 -139 659 -1 82 -6 148 -10
148 -13 0 -2 -617 12 -669 24 -92 2 -61 -32 44 -63 197 -89 368 -90 595 -1
208 23 423 62 555 17 54 28 101 26 103 -6 7 -23 -33 -39 -93 -8 -33 -38 -111
-66 -174 -95 -211 -168 -447 -185 -598 -4 -35 -10 -63 -14 -63 -8 0 -4 102 9
206 42 331 275 939 477 1242 74 111 230 273 340 352 112 80 267 155 363 176
41 9 93 24 115 34 135 60 432 73 655 29z m-1921 -128 c-13 -11 -26 -18 -28
-15 -7 7 21 34 36 34 10 0 8 -6 -8 -19z m2406 -54 c97 -65 165 -126 165 -149
0 -17 -15 -7 -72 49 -40 38 -101 88 -135 112 -63 41 -84 63 -40 40 12 -7 49
-30 82 -52z m-2455 23 c-8 -5 -11 -10 -7 -10 8 0 -128 -134 -140 -137 -4 -1
-11 -10 -15 -20 -7 -16 -8 -16 -5 2 1 11 6 19 10 17 5 -2 16 6 25 17 56 66
128 141 137 141 6 0 3 -5 -5 -10z m4045 -50 c16 -16 23 -30 17 -30 -7 0 -12 5
-12 11 0 5 -4 7 -10 4 -5 -3 -10 1 -10 10 0 10 -5 13 -12 9 -6 -4 -8 -3 -4 4
3 5 0 13 -6 15 -7 3 -8 6 -2 6 5 1 23 -12 39 -29z m64 -75 c13 -14 19 -25 14
-25 -5 0 -20 11 -33 25 -13 14 -19 25 -14 25 5 0 20 -12 33 -25z m-1112 -30
c32 -24 69 -54 83 -66 l25 -21 -26 6 c-16 3 -41 -2 -65 -14 -31 -16 -44 -18
-69 -10 -23 8 -50 7 -98 -4 -37 -7 -67 -11 -67 -9 0 24 128 163 149 163 5 0
35 -20 68 -45z m-162 3 c8 -7 -52 -90 -112 -153 -23 -25 -47 -61 -54 -80 -7
-19 -16 -35 -20 -35 -4 0 -10 34 -14 75 -7 68 -5 97 11 178 l6 29 88 -4 c49
-1 91 -6 95 -10z m381 -63 c31 -72 31 -76 -8 -63 -28 10 -158 104 -158 115 0
2 32 3 71 3 l70 0 25 -55z m934 45 c0 -5 -7 -7 -15 -4 -8 4 -15 8 -15 10 0 2
7 4 15 4 8 0 15 -4 15 -10z m-4338 -27 c-6 -3 -10 -9 -6 -14 3 -5 -2 -9 -11
-9 -9 0 -14 -4 -11 -8 3 -5 -11 -24 -31 -43 l-36 -34 24 35 c35 51 72 91 78
84 3 -4 0 -9 -7 -11z m4365 -15 c-3 -8 -6 -5 -6 6 -1 11 2 17 5 13 3 -3 4 -12
1 -19z m28 -18 c0 -4 15 -24 33 -44 17 -19 32 -40 32 -46 0 -5 4 -10 9 -10 5
0 12 -7 15 -16 13 -33 -2 -24 -29 18 -15 24 -39 54 -52 67 -12 13 -23 31 -23
39 0 8 3 12 8 8 4 -4 7 -11 7 -16z m-1047 -61 c32 -31 98 -156 89 -166 -3 -3
-16 5 -29 17 -29 27 -75 52 -91 48 -7 -2 -23 8 -36 21 -20 20 -31 23 -77 19
-33 -3 -62 -12 -74 -23 -11 -10 -20 -15 -20 -11 0 19 33 66 65 95 30 26 44 31
88 31 46 0 58 -4 85 -31z m-738 -51 c0 -20 -17 -4 -37 35 l-23 42 30 -35 c16
-19 30 -38 30 -42z m517 66 c22 -6 22 -7 5 -33 -34 -48 -50 -105 -57 -201 l-7
-95 35 -67 c39 -74 33 -76 -40 -14 -83 72 -115 193 -74 281 18 39 96 135 109
135 4 0 17 -3 29 -6z m-319 -46 c1 -18 5 -45 8 -60 6 -30 -4 -35 -37 -18 -12
7 -19 7 -19 1 0 -5 16 -15 35 -22 19 -7 35 -16 35 -20 0 -19 -31 -76 -50 -92
-22 -18 -23 -18 -50 8 -18 17 -33 47 -42 87 l-15 62 42 43 c54 55 90 59 93 11z
m218 10 c-38 -51 -70 -135 -72 -183 -1 -27 -7 -63 -13 -78 -14 -37 -14 -152 0
-180 12 -22 11 -22 -13 1 -31 28 -72 102 -88 159 -12 39 -10 46 30 145 23 56
44 109 47 116 5 11 81 40 112 41 10 1 10 -4 -3 -21z m512 -71 c60 -40 62 -43
62 -84 0 -63 -19 -142 -49 -198 l-26 -50 -5 77 c-5 67 -10 82 -38 117 -21 27
-32 51 -32 73 0 18 -14 57 -30 87 -17 30 -30 56 -30 58 0 7 85 -40 148 -80z
m-3679 4 c-19 -22 -38 -40 -43 -40 -6 -1 5 14 22 32 18 18 29 37 25 42 -5 4
-2 5 5 1 7 -4 12 -2 12 5 0 7 3 9 6 6 4 -4 -8 -24 -27 -46z m2803 16 c-7 -8
-9 -30 -6 -53 l6 -39 -20 31 c-11 18 -26 35 -33 40 -10 6 -5 11 16 20 39 17
50 17 37 1z m596 -13 c29 -20 28 -34 -2 -34 -58 0 -99 -85 -79 -162 6 -21 7
-38 2 -38 -16 0 -77 83 -81 112 -7 47 29 110 72 125 47 16 62 16 88 -3z m1281
-34 c8 -14 21 -35 29 -47 25 -40 7 -25 -31 26 -20 26 -37 54 -37 60 0 15 19
-4 39 -39z m-1179 -15 c65 -34 97 -113 69 -168 -15 -29 -50 -66 -73 -79 -17
-9 -17 -8 2 20 25 35 27 66 7 102 -8 14 -14 40 -15 58 0 18 -8 40 -20 52 -34
34 -20 41 30 15z m-3545 -15 c-3 -5 -11 -10 -16 -10 -6 0 -7 5 -4 10 3 6 11
10 16 10 6 0 7 -4 4 -10z m3504 -16 c12 -15 21 -35 21 -45 0 -17 -3 -18 -22
-7 -13 7 -31 19 -40 27 -10 7 -30 11 -48 9 -36 -5 -39 5 -8 26 34 24 73 20 97
-10z m-3531 -26 c-7 -12 -21 -31 -30 -41 -9 -11 -23 -31 -30 -46 -29 -55 -60
-101 -70 -101 -5 0 -7 -4 -3 -9 3 -6 -11 -35 -30 -65 -20 -31 -33 -56 -30 -56
3 0 1 -6 -5 -12 -6 -7 -17 -22 -26 -33 -8 -11 9 27 38 85 28 58 57 111 64 117
7 7 18 26 26 43 7 16 17 30 21 30 5 0 5 5 1 12 -4 7 -3 8 4 4 7 -4 12 -2 12 3
0 14 53 90 63 91 4 0 2 -10 -5 -22z m3474 -4 c4 -3 -7 -19 -24 -35 l-31 -29
32 -27 c39 -34 39 -43 2 -43 -24 0 -31 6 -39 33 -13 39 -10 70 7 91 13 16 42
21 53 10z m1350 -34 c9 -17 14 -30 10 -30 -4 0 -15 14 -24 30 -9 17 -14 30
-10 30 4 0 15 -14 24 -30z m-1328 1 c10 -16 -5 -41 -25 -41 -27 0 -24 20 4 21
12 0 16 3 10 6 -15 6 -17 23 -4 23 6 0 12 -4 15 -9z m46 -51 c-14 -27 -16 -25
-23 24 l-6 40 20 -21 c18 -17 19 -24 9 -43z m155 20 c17 -33 21 -163 6 -203
-21 -56 -166 -85 -252 -50 l-41 16 63 23 c50 18 74 34 112 76 64 70 87 107 87
141 0 35 6 34 25 -3z m-682 -9 c-6 -22 49 -147 79 -178 17 -18 22 -36 23 -81
0 -31 5 -66 10 -76 9 -21 -77 35 -142 91 l-33 28 14 96 c13 88 30 139 47 139
4 0 5 -8 2 -19z m422 -106 c24 -18 57 -32 85 -35 l45 -5 -57 -28 c-31 -15 -73
-27 -93 -27 -35 0 -37 2 -70 73 -19 39 -38 88 -41 107 l-7 35 49 -46 c27 -25
67 -58 89 -74z m-207 2 c30 -32 183 -147 222 -167 14 -8 40 -13 59 -11 29 2
32 0 22 -13 -22 -26 -94 -46 -180 -48 l-85 -3 -38 50 c-49 64 -83 169 -74 232
9 65 18 72 33 28 7 -22 26 -52 41 -68z m278 65 c-4 -3 -12 0 -19 7 -9 9 -9 14
3 21 11 7 16 5 18 -6 2 -9 1 -18 -2 -22z m36 -54 l-29 -29 -36 17 c-42 20 -46
29 -15 31 39 3 75 24 89 50 l14 27 3 -34 c3 -26 -3 -40 -26 -62z m1314 67 c-3
-8 -1 -15 4 -15 13 0 60 -75 60 -95 0 -8 4 -15 9 -15 5 0 16 -13 24 -28 11
-24 11 -29 0 -29 -7 0 -13 7 -13 14 0 8 -11 29 -25 47 -14 18 -25 40 -25 48 0
9 -11 26 -25 39 -26 25 -33 49 -14 49 6 0 9 -7 5 -15z m-1027 -77 c11 -42 31
-143 31 -159 0 -10 -112 -90 -159 -114 -33 -16 -34 -16 -26 1 8 21 31 105 39
144 3 14 23 49 46 79 22 29 40 62 40 72 0 34 17 20 29 -23z m-1613 -70 c27
-29 110 -112 185 -183 l135 -131 -92 -1 c-78 -1 -154 -15 -217 -39 -10 -3 -14
8 -15 43 -4 73 -46 335 -57 353 -3 5 -2 10 3 10 5 0 31 -24 58 -52z m1023
-165 c22 -25 38 -33 64 -33 22 0 37 -6 41 -15 3 -9 29 -26 57 -40 l51 -23 -32
-17 c-20 -10 -68 -19 -126 -22 l-93 -6 -24 56 c-14 30 -32 80 -41 110 -14 47
-15 65 -6 107 0 3 18 -15 40 -40 21 -25 52 -60 69 -77z m457 80 c-4 -16 -23
-63 -44 -106 l-36 -79 -66 7 c-75 7 -154 30 -170 50 -9 10 -2 14 32 20 60 10
124 39 137 63 6 11 25 23 43 26 18 4 49 15 68 25 19 11 37 19 39 20 2 1 0 -11
-3 -26z m1298 -1 c3 -5 -1 -9 -9 -9 -8 0 -15 4 -15 9 0 4 4 8 9 8 6 0 12 -4
15 -8z m15 -62 c0 -10 -3 -8 -9 5 -12 27 -12 43 0 25 5 -8 9 -22 9 -30z
m-5252 -9 c-2 -10 -10 -29 -19 -42 -16 -24 -17 -24 -11 -1 3 12 10 22 15 22 5
0 6 5 3 10 -3 6 -3 15 0 20 10 16 15 12 12 -9z m5285 -56 c-4 -5 -9 1 -13 15
-12 42 -9 57 5 25 7 -16 11 -34 8 -40z m-1203 -159 c57 -145 174 -516 167
-524 -6 -6 -65 97 -72 125 -9 33 -88 227 -137 335 -20 43 -32 80 -27 83 9 5 6
53 -6 130 -8 55 14 12 75 -149z m-95 119 c-1 -17 -1 -44 -2 -61 l-2 -31 -62
17 c-57 15 -90 40 -55 40 8 0 18 7 21 16 3 8 11 12 17 8 7 -4 10 -1 7 7 -3 8
6 19 21 26 40 18 55 12 55 -22z m-4014 15 c0 -5 -2 -10 -4 -10 -3 0 -8 5 -11
10 -3 6 -1 10 4 10 6 0 11 -4 11 -10z m-27 -31 c-6 -6 -9 -18 -6 -27 4 -10 2
-13 -5 -8 -7 4 -12 2 -12 -5 0 -7 -3 -10 -6 -6 -3 3 2 19 12 36 10 17 20 28
23 26 2 -3 0 -10 -6 -16z m5371 -19 c-5 -5 -10 3 -11 18 -1 22 0 24 9 8 6 -10
6 -22 2 -26z m-3612 -52 c11 -29 26 -75 35 -103 8 -27 26 -71 39 -97 13 -26
24 -49 24 -52 0 -2 -20 -11 -45 -19 -52 -18 -155 -84 -155 -100 0 -6 -3 -8 -6
-5 -3 3 9 79 27 169 48 245 53 269 58 264 2 -3 13 -29 23 -57z m2026 30 c6
-17 14 -29 18 -26 3 4 1 16 -6 27 -10 20 -9 21 30 17 58 -5 66 -16 42 -62 -42
-80 -40 -79 -109 -44 -34 17 -68 39 -77 49 -16 17 -14 20 31 43 26 14 50 26
53 27 3 0 11 -13 18 -31z m1605 -9 c4 -16 3 -18 -9 -8 -7 6 -11 15 -8 20 8 13
11 11 17 -12z m-2689 -19 c-39 -4 -86 -11 -105 -15 -19 -4 -31 -5 -28 -1 11
12 86 24 144 24 l60 -1 -71 -7z m-2724 -10 c0 -5 -5 -10 -11 -10 -5 0 -7 5 -4
10 3 6 8 10 11 10 2 0 4 -4 4 -10z m2985 -55 c53 -36 121 -79 150 -96 30 -17
56 -38 59 -47 9 -35 16 -72 14 -72 -2 0 -25 9 -53 19 -49 19 -49 20 -25 30 21
9 16 10 -25 6 -27 -3 -84 -2 -125 3 -64 6 -84 4 -138 -14 -79 -27 -253 -144
-215 -144 6 0 18 9 28 20 34 37 37 20 6 -34 -36 -62 -40 -82 -8 -45 26 31 114
99 128 99 6 0 7 -9 4 -20 -3 -11 -2 -20 4 -20 5 0 13 9 16 20 8 24 41 44 61
36 40 -15 -12 -85 -56 -73 -16 4 -20 0 -20 -19 0 -14 7 -41 15 -61 12 -29 13
-39 3 -51 -11 -14 -10 -15 7 -8 37 15 210 46 255 46 l46 0 2 52 c4 103 -35
160 -111 162 -25 0 -43 4 -40 8 5 10 -59 -2 -73 -13 -6 -5 -19 -10 -30 -12
-10 -2 -29 -9 -42 -15 -12 -7 -26 -11 -30 -8 -5 3 -23 -4 -40 -15 -37 -22 -42
-23 -42 -10 0 11 29 29 100 61 25 12 53 26 64 31 13 8 16 7 11 -1 -6 -9 -2 -9
13 -1 24 13 35 14 29 4 -3 -5 12 -8 33 -8 21 -1 37 2 34 6 -2 4 10 4 27 -1 17
-5 34 -9 38 -8 15 2 71 -15 71 -22 0 -4 19 -10 41 -13 43 -6 67 -26 47 -38 -6
-4 -18 0 -27 10 -11 11 -13 12 -6 1 7 -11 4 -10 -11 3 -24 20 -101 37 -91 20
4 -5 27 -18 52 -27 50 -20 51 -22 30 -73 -21 -49 -13 -51 23 -7 l31 37 7 -39
c14 -73 8 -157 -15 -224 -37 -106 -109 -248 -148 -291 -57 -63 -31 -57 34 8
66 66 146 167 165 208 l13 28 6 -24 c13 -45 9 -204 -6 -264 -8 -33 -31 -92
-51 -131 -60 -121 -306 -377 -469 -490 -52 -35 -63 -39 -114 -37 -34 1 -123
21 -227 52 -311 92 -427 144 -500 223 -70 76 -359 466 -351 474 9 9 56 5 117
-9 56 -14 62 -14 45 -1 -66 49 -67 52 -48 85 21 36 91 109 105 109 5 0 7 -4 4
-8 -2 -4 -1 -14 3 -21 6 -9 12 -3 20 17 19 45 81 66 81 28 0 -25 -41 -66 -66
-66 -37 0 -27 -37 25 -94 18 -19 22 -30 14 -33 -7 -3 -13 -9 -13 -14 0 -5 28
6 63 24 34 19 96 46 137 62 41 15 76 29 78 30 7 5 -29 100 -45 118 -18 20 -17
20 2 13 11 -4 27 -10 35 -12 13 -4 13 -4 0 6 -8 6 -33 22 -55 36 -38 24 -38
25 -10 19 24 -5 28 -4 18 6 -9 9 -49 13 -125 13 -104 1 -118 -1 -169 -26 -31
-16 -72 -43 -91 -60 -19 -18 -50 -46 -69 -61 -19 -15 -24 -23 -12 -17 12 5 25
15 28 20 3 6 10 10 15 10 8 0 -15 -39 -80 -135 -18 -26 -20 -27 -20 -8 0 11 9
50 20 85 11 35 36 126 55 203 20 77 37 140 38 140 1 1 17 12 36 25 68 47 196
111 200 99 15 -45 184 -259 205 -259 5 0 2 8 -6 18 -32 35 -135 268 -124 279
1 2 24 -28 50 -66 63 -93 183 -207 225 -213 17 -2 31 -4 31 -2 0 1 -16 26 -36
55 -35 53 -84 142 -84 155 0 3 20 -19 45 -49 24 -30 67 -71 95 -92 43 -31 52
-35 64 -23 8 8 58 20 115 28 56 7 101 15 101 17 0 2 -13 21 -29 43 -16 22 -27
48 -24 58 2 9 7 80 11 157 l7 139 65 13 c72 15 185 30 242 32 30 1 55 -11 133
-64z m1003 54 c26 -7 48 -12 49 -13 15 -10 80 -615 88 -826 8 -199 34 -403 70
-540 5 -21 1 -28 -29 -44 -19 -10 -66 -50 -104 -88 l-69 -70 -33 89 c-33 92
-123 435 -135 513 -6 41 -1 35 44 -58 56 -114 193 -331 199 -314 2 6 -4 22
-12 35 -21 31 -61 149 -91 267 -23 93 -75 360 -75 383 1 7 25 -60 54 -149 63
-193 65 -198 71 -192 3 3 -22 87 -55 187 -81 246 -86 269 -109 481 -12 102
-23 197 -25 211 -4 22 -2 26 13 22 12 -3 26 10 49 47 18 28 32 56 32 61 0 12
11 11 68 -2z m1440 -30 c-3 -8 -7 -3 -11 10 -4 17 -3 21 5 13 5 -5 8 -16 6
-23z m-5452 -22 c-6 -18 -19 -44 -29 -58 l-18 -24 14 30 c8 17 20 42 26 58 15
38 21 34 7 -6z m5484 -51 c0 -12 -5 -7 -19 24 -11 24 -11 24 3 6 9 -11 16 -24
16 -30z m-2975 -86 c12 -60 20 -110 18 -110 -2 0 -12 19 -22 43 -16 39 -37
197 -24 184 3 -4 16 -56 28 -117z m1660 -21 c21 -57 10 -47 -24 24 -17 34 -31
58 -31 53 0 -5 -2 -7 -5 -4 -3 3 -2 13 1 23 6 15 11 11 26 -20 11 -21 26 -55
33 -76z m1322 69 c-3 -8 -6 -5 -6 6 -1 11 2 17 5 13 3 -3 4 -12 1 -19z m-5531
-18 c0 -11 -4 -20 -8 -20 -10 0 -11 24 -1 33 9 9 9 10 9 -13z m4286 -268 c22
-37 93 -137 157 -222 120 -161 240 -336 283 -413 24 -42 24 -45 7 -55 -15 -10
-21 -6 -40 26 -75 123 -195 297 -308 446 -88 116 -211 308 -220 344 -5 20 -12
62 -15 92 l-6 55 50 -103 c28 -56 69 -133 92 -170z m-932 178 c0 -35 -1 -36
-31 -32 -33 5 -35 8 -42 63 l-5 37 39 -16 c35 -14 39 -18 39 -52z m-3370 39
c0 -11 -4 -18 -10 -14 -5 3 -7 12 -3 20 7 21 13 19 13 -6z m5578 -4 c6 -14 10
-25 8 -25 -2 0 -11 11 -20 25 -9 14 -13 25 -8 25 5 0 14 -11 20 -25z m-4571
-17 c-3 -8 -6 -5 -6 6 -1 11 2 17 5 13 3 -3 4 -12 1 -19z m8 -45 c-4 -10 -9
-97 -11 -193 -5 -215 -21 -287 -95 -439 -16 -33 -16 -33 -22 -10 -3 13 -9 50
-12 81 -6 47 -4 63 12 90 11 18 30 50 42 71 13 20 19 37 14 37 -4 0 -24 -26
-43 -57 l-35 -57 -3 61 c-3 57 3 76 68 234 38 95 70 178 70 186 0 7 5 13 11
13 7 0 8 -7 4 -17z m4584 -28 c0 -5 -4 -3 -9 5 -5 8 -9 22 -9 30 0 16 17 -16
18 -35z m-3660 32 c-19 -15 -139 -75 -134 -67 7 11 114 69 129 70 5 0 7 -1 5
-3z m1184 -26 c19 -8 47 -53 47 -77 0 -2 -19 6 -42 16 -49 22 -105 25 -129 7
-15 -11 -15 -16 -2 -50 8 -20 19 -37 24 -37 12 0 11 17 -1 25 -13 8 -13 52 0
60 21 13 42 -18 37 -52 -4 -20 -2 -31 4 -28 5 4 9 22 9 42 0 32 2 35 25 29 66
-17 76 -25 73 -58 l-3 -32 -115 -23 c-63 -12 -116 -23 -117 -23 -1 0 -7 9 -13
20 -9 17 -7 27 12 53 12 17 29 37 38 44 12 10 12 12 1 13 -11 0 -11 3 0 16 10
12 10 20 1 34 -6 10 -8 21 -5 24 10 9 129 7 156 -3z m240 -28 c-4 -9 -12 -42
-18 -72 l-11 -56 -8 58 c-5 40 -4 62 4 73 17 20 41 18 33 -3z m-3401 -20 c-3
-16 -7 -22 -10 -15 -4 13 4 42 11 42 2 0 2 -12 -1 -27z m5424 -7 c22 -22 34
-44 34 -62 0 -15 -58 -159 -129 -318 -72 -160 -139 -313 -151 -340 l-20 -48
-40 36 c-22 20 -48 36 -58 36 -9 0 -41 -16 -70 -35 -28 -20 -52 -34 -52 -32 0
12 280 638 325 728 39 77 105 91 161 35z m221 12 c-3 -8 -6 -5 -6 6 -1 11 2
17 5 13 3 -3 4 -12 1 -19z m-5665 -70 c-8 -8 -9 -4 -5 13 4 13 8 18 11 10 2
-7 -1 -18 -6 -23z m2981 -5 c-15 -23 -18 -24 -21 -9 -2 10 2 22 10 27 24 16
29 9 11 -18z m1328 -60 c29 -43 71 -103 94 -133 36 -49 44 -69 65 -170 20 -96
24 -149 27 -322 1 -115 -1 -208 -5 -208 -4 0 -24 42 -44 93 -86 220 -152 469
-173 659 -9 73 -17 139 -20 146 -10 28 7 8 56 -65z m1389 33 c0 -3 -4 -8 -10
-11 -5 -3 -10 -1 -10 4 0 6 5 11 10 11 6 0 10 -2 10 -4z m-5709 -40 c-4 -6
-11 -18 -14 -26 -3 -8 -5 -3 -4 11 1 14 7 26 14 26 8 0 9 -5 4 -11z m5717 -14
c0 -9 3 -26 6 -37 7 -19 7 -19 -4 -2 -14 22 -21 69 -9 62 4 -3 7 -13 7 -23z
m-5728 -72 c0 -5 -2 -10 -4 -10 -3 0 -8 5 -11 10 -3 6 -1 10 4 10 6 0 11 -4
11 -10z m2140 -18 c3 -2 -12 -3 -32 0 -21 2 -38 1 -38 -3 0 -4 -11 -10 -25
-13 -14 -4 -23 -11 -20 -17 4 -5 3 -9 -2 -8 -27 5 -63 -3 -60 -12 1 -7 -13
-16 -31 -21 -37 -10 -99 -73 -123 -126 -9 -20 -24 -37 -34 -38 -15 -2 -15 0
-1 19 8 12 25 41 36 64 28 55 110 135 133 129 9 -2 15 -1 12 4 -5 9 22 18 75
27 19 3 37 7 39 9 4 4 64 -7 71 -14z m78 -55 c26 -24 29 -42 5 -32 -10 5 -38
10 -62 11 -52 4 -94 -25 -127 -89 -19 -35 -22 -38 -27 -18 -4 15 3 30 25 52
26 25 30 35 25 64 -5 33 -4 34 31 38 58 7 105 -3 130 -26z m3529 -9 c-3 -8 -6
-5 -6 6 -1 11 2 17 5 13 3 -3 4 -12 1 -19z m-3593 -44 c11 -28 6 -44 -13 -44
-19 0 -31 18 -31 46 0 19 36 18 44 -2z m84 0 c26 -18 29 -52 5 -61 -10 -3 -56
-21 -101 -41 -76 -31 -85 -33 -100 -19 -14 15 -14 20 3 57 18 39 45 72 45 53
0 -12 38 -53 50 -53 5 0 15 7 24 15 11 12 13 22 6 40 -9 23 -7 25 18 25 15 0
38 -7 50 -16z m3519 -6 c-3 -8 -6 -5 -6 6 -1 11 2 17 5 13 3 -3 4 -12 1 -19z
m-1233 -25 c18 -29 28 -66 40 -156 19 -144 20 -211 1 -122 -17 83 -18 44 -1
-47 26 -137 39 -299 31 -383 l-8 -80 -35 74 c-34 74 -34 76 -23 145 15 98 18
416 4 441 -6 11 -16 47 -23 80 -7 33 -15 65 -17 72 -10 26 7 12 31 -24z m-550
-259 c15 -71 47 -214 71 -319 24 -104 49 -216 55 -247 6 -32 14 -58 17 -58 6
0 -2 61 -12 97 -3 10 4 0 15 -22 27 -56 26 -64 -22 -116 -34 -37 -52 -47 -87
-53 -24 -4 -45 -5 -47 -3 -6 5 -63 288 -83 412 -59 357 -62 481 -13 556 l26
40 27 -79 c15 -43 39 -137 53 -208z m-4012 248 c3 -9 1 -26 -3 -37 -6 -15 -8
-11 -8 18 -1 40 4 48 11 19z m1138 -38 c0 -25 9 -92 21 -147 15 -75 19 -119
14 -167 -8 -81 -15 -110 -25 -110 -16 0 -70 84 -99 154 l-30 71 44 88 c24 48
47 103 51 122 9 50 24 43 24 -11z m-145 -181 c27 -94 95 -256 121 -290 40 -53
10 -38 -41 20 -61 69 -123 196 -131 269 -4 31 -3 91 2 135 l8 78 12 -77 c7
-43 20 -103 29 -135z m-87 85 c-4 -9 -4 -18 1 -20 4 -2 11 -39 15 -83 l6 -81
-53 -64 c-49 -59 -157 -159 -157 -146 0 12 109 236 144 295 20 35 35 66 32 68
-5 5 -60 -74 -70 -101 -3 -10 -9 -16 -12 -13 -3 3 10 36 29 73 19 38 41 89 48
114 l14 45 6 -35 c3 -19 2 -43 -3 -52z m3532 -238 c35 -103 108 -276 164 -390
l52 -105 -16 -92 c-10 -52 -13 -98 -9 -105 5 -7 9 -20 9 -28 0 -26 -20 5 -24
37 -3 17 -16 50 -31 73 -15 24 -38 84 -52 134 -27 99 -50 145 -90 175 -13 11
-31 41 -38 65 -21 69 -53 306 -59 441 l-6 120 39 -130 c21 -71 48 -159 61
-195z m1380 285 c0 -5 -5 -3 -10 5 -5 8 -10 20 -10 25 0 6 5 3 10 -5 5 -8 10
-19 10 -25z m-5826 -14 c-4 -17 -9 -30 -11 -27 -3 2 -2 19 2 36 9 41 17 33 9
-9z m4797 -243 c46 -78 44 -87 -23 -139 -64 -50 -58 -33 -84 -211 -9 -65 -20
-118 -23 -118 -3 0 -6 105 -7 233 0 161 -5 269 -17 354 -9 67 -17 127 -17 135
0 14 102 -137 171 -254z m-4809 100 c-8 -8 -10 -2 -10 23 1 31 2 32 11 11 7
-16 7 -26 -1 -34z m1853 -49 c-3 -4 -1 -10 5 -14 5 -3 10 -19 10 -36 0 -16 5
-29 10 -29 6 0 10 9 10 21 0 18 3 17 25 -9 14 -17 25 -33 25 -38 0 -4 12 -21
28 -37 l27 -29 -30 8 c-16 4 -42 13 -57 21 -16 7 -28 10 -28 5 0 -12 36 -29
87 -42 33 -8 49 -21 77 -60 36 -49 36 -50 12 -50 -60 0 -220 110 -229 157 -2
15 -10 55 -16 88 -6 33 -14 76 -16 95 l-5 35 35 -39 c19 -21 32 -42 30 -47z
m2106 -454 c22 -110 42 -207 44 -215 3 -9 -8 -21 -28 -30 -17 -8 -42 -30 -54
-48 l-22 -33 -11 39 c-12 46 -54 240 -64 292 -3 21 4 97 19 185 14 83 28 182
32 220 l7 70 18 -140 c10 -77 37 -230 59 -340z m-3951 434 c0 -10 -4 -19 -10
-19 -5 0 -10 12 -10 26 0 14 4 23 10 19 6 -3 10 -15 10 -26z m800 -4 c0 -3 -6
-16 -14 -28 -25 -39 -123 -278 -165 -402 -66 -196 -94 -353 -94 -530 0 -91 5
-161 12 -179 6 -16 10 -30 8 -32 -2 -2 -26 16 -54 41 -39 35 -53 41 -63 32
-21 -20 -7 240 19 346 29 116 78 257 139 393 69 156 212 398 212 359z m578
-215 c23 -49 15 -61 -22 -37 -27 18 -45 78 -52 176 l-5 66 29 -80 c16 -44 39
-100 50 -125z m3911 83 l94 -88 -8 -43 c-6 -39 -25 -60 -25 -28 0 16 -18 31
-27 22 -3 -3 2 -12 10 -21 25 -24 30 -77 14 -136 -8 -30 -27 -103 -42 -164
-22 -85 -50 -157 -129 -320 l-101 -210 1 -230 c1 -150 7 -279 18 -370 10 -77
20 -162 23 -190 l5 -50 -102 -107 c-56 -60 -150 -149 -208 -200 l-106 -91 -12
79 c-6 43 -18 96 -27 117 -15 34 -15 54 -5 170 9 102 16 138 31 160 11 16 20
41 21 56 1 16 14 46 29 68 24 34 26 43 17 70 -9 24 -7 40 10 82 26 67 25 83
-6 120 -23 28 -22 44 2 22 21 -20 62 -21 85 -2 l22 18 -21 34 c-11 19 -26 64
-32 100 -10 54 -9 71 3 100 9 20 16 27 16 17 1 -10 5 -18 10 -18 6 0 6 12 -1
30 -6 20 -7 35 -1 43 6 6 24 50 41 97 64 181 146 335 163 308 5 -7 9 18 9 60
0 48 4 72 12 72 6 0 -9 11 -33 23 -42 23 -46 23 -88 9 -26 -9 -61 -33 -86 -58
-47 -50 -88 -63 -59 -19 9 14 12 25 8 25 -5 0 -15 -9 -22 -20 -11 -19 -42 -28
-42 -13 0 4 11 18 24 32 13 15 35 46 48 70 21 34 42 52 104 86 l78 42 80 -18
c92 -21 130 -24 121 -9 -3 6 -19 10 -35 10 -15 0 -57 9 -92 20 l-63 20 -80
-41 c-44 -22 -90 -52 -103 -67 -20 -22 -23 -24 -19 -7 3 11 8 37 11 57 6 30
19 46 73 90 36 29 80 63 97 75 l31 22 109 -19 c124 -23 160 -25 136 -10 -8 5
-29 10 -47 10 -23 0 -40 9 -62 33 -17 17 -31 38 -31 45 0 9 -8 7 -26 -7 -15
-12 -44 -26 -65 -31 -21 -6 -63 -31 -94 -56 -60 -49 -81 -53 -46 -8 12 15 19
30 16 33 -9 8 -54 -52 -55 -72 0 -10 -13 -32 -30 -49 -24 -23 -30 -38 -30 -71
0 -61 -16 -110 -45 -137 -28 -27 -32 -55 -10 -68 14 -7 11 -21 -20 -100 -19
-50 -35 -98 -35 -107 0 -9 -4 -13 -10 -10 -17 10 -10 203 10 310 11 55 27 147
37 205 l17 104 64 66 c36 36 72 73 80 83 21 23 27 22 41 -9 9 -20 9 -35 1 -60
-7 -19 -10 -40 -7 -47 2 -6 9 3 14 22 7 29 24 44 108 97 118 75 105 78 244
-53z m-4065 60 c3 -21 19 -65 35 -98 17 -33 29 -61 28 -62 -2 -1 -24 12 -51
29 -43 29 -47 34 -42 61 3 16 6 47 6 68 0 50 15 51 24 2z m489 -148 c5 -74 4
-94 -4 -75 -14 34 -39 177 -38 220 l0 35 18 -40 c11 -25 20 -78 24 -140z
m1746 118 c-1 -31 -5 -64 -10 -72 -4 -9 -11 -36 -14 -61 -3 -25 -21 -76 -40
-114 -36 -72 -21 -72 22 1 14 24 27 43 28 41 3 -3 13 -107 35 -367 6 -69 16
-132 21 -140 8 -12 9 -8 4 14 -4 17 -8 68 -11 115 -2 47 -10 156 -18 243 l-16
157 28 56 27 56 6 -68 c4 -38 5 -175 2 -304 -3 -185 -1 -245 11 -282 8 -27 12
-48 9 -48 -2 0 -25 18 -51 39 -28 24 -66 44 -94 52 l-48 11 0 73 c0 108 -20
386 -30 420 -7 20 -8 -1 -4 -63 9 -144 7 -233 -7 -313 l-13 -74 -9 45 c-15 71
-14 328 1 385 9 37 31 73 78 130 36 44 70 90 75 103 14 35 18 26 18 -35z
m-3465 -57 c-3 -21 -8 -35 -11 -32 -2 2 -1 20 3 40 3 21 8 35 11 32 2 -2 1
-20 -3 -40z m1265 -74 c31 -14 50 -32 68 -63 35 -63 54 -122 43 -133 -7 -7
-10 -5 -10 4 0 41 -23 92 -44 100 -49 18 -205 158 -206 183 0 4 24 -10 53 -32
29 -22 72 -49 96 -59z m515 -29 c20 -38 54 -92 76 -121 46 -60 49 -70 18 -50
-13 8 -44 23 -70 33 -26 9 -50 25 -52 34 -8 28 -19 171 -13 171 3 0 22 -30 41
-67z m116 47 c48 -34 133 -70 167 -70 36 0 37 -2 52 -97 10 -67 14 -203 6
-203 -4 0 -25 15 -48 34 -23 18 -63 45 -88 60 -52 30 -72 66 -108 196 -30 109
-29 114 19 80z m3240 16 c0 -2 3 -11 6 -20 5 -14 2 -14 -26 -5 -23 9 -28 14
-18 20 14 9 38 12 38 5z m-5133 -28 c-3 -8 -6 -5 -6 6 -1 11 2 17 5 13 3 -3 4
-12 1 -19z m1393 -48 c11 0 25 -15 38 -40 21 -43 19 -45 -35 -34 -22 4 -33 14
-41 38 -16 43 -15 49 4 42 9 -3 24 -6 34 -6z m-134 -40 c71 -34 72 -35 83 -86
10 -44 9 -62 -4 -108 -11 -36 -16 -84 -14 -134 3 -80 -16 -188 -35 -200 -6 -3
-45 -23 -86 -43 l-75 -36 53 160 c29 87 51 164 49 171 -5 13 -2 22 -57 -148
-61 -186 -62 -188 -121 -224 -39 -25 -50 -29 -44 -15 32 84 131 480 157 631 7
40 15 71 18 69 3 -2 37 -19 76 -37z m248 10 c12 -26 12 -30 0 -30 -8 0 -14 6
-14 14 0 8 -3 21 -6 30 -11 28 4 17 20 -14z m-1507 -12 c-3 -7 -5 -2 -5 12 0
14 2 19 5 13 2 -7 2 -19 0 -25z m2232 -78 c24 -12 103 -41 175 -65 151 -50
142 -39 153 -197 3 -54 9 -98 14 -98 4 0 5 28 3 63 l-4 62 14 -50 c22 -75 21
-82 -19 -88 -23 -4 -55 -23 -93 -57 l-57 -51 -7 53 c-4 29 -14 112 -23 183 -9
72 -21 137 -27 145 -6 10 -8 3 -4 -25 16 -123 17 -180 6 -259 -8 -55 -16 -86
-23 -83 -6 2 -25 30 -42 63 -16 32 -60 91 -98 131 l-68 71 2 104 c0 56 -4 119
-10 138 -6 19 -11 36 -11 38 0 2 17 -10 38 -26 20 -16 57 -39 81 -52z m1021
-52 c0 -247 33 -414 92 -463 16 -14 36 -28 44 -33 14 -8 13 -18 -5 -88 -12
-43 -43 -136 -69 -205 l-48 -126 -49 49 c-28 27 -88 72 -135 100 -150 91 -303
197 -426 294 -11 9 -9 18 9 55 25 50 35 196 19 267 -12 50 -15 49 98 20 48
-12 96 -19 110 -15 42 10 108 60 230 171 63 57 118 105 123 105 4 1 7 -59 7
-131z m-2680 92 c0 -6 -45 -55 -100 -110 -55 -54 -100 -96 -100 -93 0 15 89
119 139 164 62 54 61 53 61 39z m5251 -26 c-5 -16 -10 -21 -10 -12 -1 18 10
51 15 45 2 -1 -1 -16 -5 -33z m-5814 -11 c-3 -10 -5 -4 -5 12 0 17 2 24 5 18
2 -7 2 -21 0 -30z m1625 -10 c113 -62 230 -231 244 -354 l6 -56 -78 -5 c-97
-6 -149 -27 -255 -108 -44 -33 -86 -60 -94 -60 -8 0 -17 -5 -21 -11 -5 -9 1
-10 20 -5 31 8 33 2 6 -27 -33 -34 -110 -204 -131 -287 -19 -73 -24 -240 -8
-240 4 0 24 -34 45 -76 l37 -75 -12 -127 c-15 -161 -8 -184 98 -361 71 -117
109 -196 99 -206 -7 -7 -124 53 -155 79 -39 33 -53 78 -53 169 0 38 -4 76 -9
86 -6 10 -40 35 -76 56 -112 66 -166 141 -164 230 0 17 6 64 13 105 9 49 11
83 4 99 -5 14 -40 57 -77 96 -88 93 -132 179 -139 273 -6 95 9 136 61 166 65
37 143 49 273 41 l113 -7 31 30 c16 17 30 41 30 53 0 12 -18 61 -40 109 -22
48 -44 110 -50 140 -23 120 33 271 113 305 38 16 103 4 169 -32z m85 11 c250
-83 456 -239 546 -412 50 -97 92 -236 113 -371 l6 -44 -78 43 c-44 23 -119 69
-168 102 -49 32 -91 57 -93 54 -9 -9 131 -104 251 -172 162 -90 181 -103 202
-139 26 -43 23 -123 -10 -230 -39 -128 -39 -128 -29 -122 6 4 18 36 28 72 9
36 20 65 24 65 9 -1 211 -317 249 -390 35 -70 52 -140 33 -140 -6 0 -11 6 -11
13 0 18 -39 53 -73 66 -15 6 -77 20 -138 30 -124 22 -167 44 -207 104 -24 36
-27 50 -27 121 1 45 4 119 9 166 6 75 6 83 -7 67 -14 -16 -16 -15 -36 19 -27
46 -22 65 8 33 13 -13 22 -18 19 -10 -2 8 -16 24 -31 35 -21 16 -50 21 -139
27 -135 8 -185 26 -233 82 -83 96 -99 225 -51 407 33 125 31 173 -13 266 -61
129 -153 239 -227 270 -19 8 -34 16 -34 19 0 8 4 7 117 -31z m-307 11 c-7 -8
-16 -15 -21 -15 -5 0 -9 7 -9 15 0 9 9 15 21 15 18 0 19 -2 9 -15z m3049 -21
c31 -39 68 -166 82 -280 14 -112 1 -275 -26 -342 -9 -20 -14 -46 -11 -58 5
-17 -7 -28 -77 -66 -45 -25 -106 -58 -134 -72 -49 -25 -56 -32 -99 -119 -28
-53 -49 -86 -52 -77 -2 8 -13 34 -23 57 -11 23 -19 49 -19 57 0 9 21 31 48 51
63 46 232 132 276 141 20 3 36 10 36 15 0 29 -103 -12 -264 -105 -65 -37 -121
-64 -125 -59 -4 4 -13 21 -19 36 -12 29 -12 29 20 22 l33 -6 -30 19 c-16 11
-41 31 -54 46 l-25 27 43 149 c85 297 124 372 253 496 105 101 132 112 167 68z
m-4442 -36 c-3 -8 -6 -5 -6 6 -1 11 2 17 5 13 3 -3 4 -12 1 -19z m5800 -10
c-3 -8 -6 -5 -6 6 -1 11 2 17 5 13 3 -3 4 -12 1 -19z m-13 -57 c-4 -17 -9 -30
-11 -27 -3 2 -2 19 2 36 9 41 17 33 9 -9z m-3167 -53 c7 -14 18 -60 25 -102
10 -66 10 -79 -3 -87 -26 -16 -49 -10 -49 14 0 12 -14 67 -30 121 -17 55 -30
101 -30 102 0 2 17 -3 38 -10 22 -7 42 -23 49 -38z m2379 -60 c-10 -29 -45
-116 -77 -193 -31 -77 -67 -167 -79 -200 -12 -33 -28 -73 -35 -90 -7 -16 -17
-42 -20 -57 -4 -16 -10 -28 -15 -28 -7 0 -111 88 -144 123 -19 20 -19 22 -2
66 9 25 26 71 37 101 11 30 38 99 61 153 36 84 44 97 65 97 15 0 41 17 69 46
25 25 62 51 82 58 33 11 39 11 57 -5 19 -18 19 -20 1 -71z m-1177 5 c7 -38 18
-89 27 -114 10 -32 12 -53 5 -70 -7 -18 -10 -20 -15 -9 -8 21 -36 204 -36 235
0 44 8 27 19 -42z m1948 35 c-3 -8 -6 -5 -6 6 -1 11 2 17 5 13 3 -3 4 -12 1
-19z m-2237 -33 c0 -34 42 -243 55 -277 9 -22 -8 -24 -28 -3 -34 34 -67 315
-37 315 6 0 10 -16 10 -35z m1489 -56 c-14 -26 -34 -37 -25 -13 5 10 11 27 14
37 3 14 7 15 13 6 4 -7 3 -21 -2 -30z m-1702 -95 c-2 -3 -11 -2 -19 1 -12 5
-14 13 -7 38 4 18 12 46 16 62 6 25 8 19 11 -34 2 -35 1 -65 -1 -67z m-3279
91 c-3 -3 -9 2 -12 12 -6 14 -5 15 5 6 7 -7 10 -15 7 -18z m4036 -53 c-12 -31
-37 -109 -54 -172 -43 -159 -52 -190 -59 -190 -7 0 -51 66 -51 76 0 3 12 -1
26 -11 42 -27 37 -13 -14 41 -26 28 -53 67 -59 88 -11 36 -9 44 23 107 39 78
62 97 131 109 87 14 83 17 57 -48z m486 36 c0 -6 18 -51 40 -100 22 -50 40
-95 40 -101 0 -6 -14 -45 -32 -88 -22 -55 -38 -80 -56 -89 -36 -16 -43 -1 -26
55 10 33 16 99 17 196 1 81 5 145 10 142 4 -2 7 -9 7 -15z m1179 -52 c-9 -8
-10 -7 -5 7 3 10 7 24 7 30 1 7 3 4 6 -7 3 -10 -1 -23 -8 -30z m-4409 -25 c0
-9 5 -22 11 -28 8 -8 3 -16 -21 -28 -28 -15 -32 -15 -27 -2 3 9 9 32 13 51 6
36 24 41 24 7z m1043 -53 c6 -64 5 -68 -14 -68 -17 0 -20 5 -15 28 3 15 8 46
11 70 4 24 8 42 10 40 1 -2 5 -33 8 -70z m247 -25 l-21 -47 -18 28 c-13 19
-21 24 -26 16 -22 -35 269 -258 505 -388 41 -23 95 -62 120 -88 46 -47 43 -49
-19 -7 -31 21 -36 22 -51 8 -9 -8 -23 -34 -29 -57 -11 -36 -107 -277 -156
-392 l-16 -38 -33 38 c-143 168 -181 219 -377 509 -117 173 -138 208 -155 265
-19 63 -19 64 32 88 25 12 67 43 95 69 39 37 60 48 107 57 69 14 73 8 42 -61z
m776 36 c11 -4 42 -26 68 -48 26 -23 65 -50 87 -61 21 -11 43 -29 48 -39 6
-10 60 -144 121 -297 61 -154 122 -303 136 -333 14 -29 24 -55 22 -56 -7 -7
-233 107 -297 150 -39 26 -106 83 -150 126 -44 43 -87 79 -96 79 -15 0 -55
-54 -55 -74 0 -6 14 3 30 19 l31 29 51 -51 51 -52 -31 -26 c-18 -15 -32 -31
-32 -37 0 -5 14 2 31 16 35 30 54 32 76 10 74 -74 394 -237 418 -212 3 2 -13
47 -36 99 -49 113 -189 464 -189 475 0 4 14 -12 31 -35 17 -24 32 -41 34 -39
2 2 -9 30 -25 62 -17 32 -30 65 -30 72 0 19 62 7 75 -14 6 -9 26 -34 45 -56
20 -23 48 -59 62 -82 32 -50 110 -205 106 -209 -2 -2 -21 12 -42 31 -21 19
-43 34 -49 34 -5 0 20 -28 57 -61 70 -64 89 -92 101 -146 6 -28 -2 -49 -55
-145 -34 -62 -63 -114 -65 -116 -2 -2 -42 10 -90 27 -122 43 -267 71 -372 71
-87 0 -93 -2 -189 -48 -112 -55 -222 -138 -307 -233 -67 -73 -149 -194 -174
-256 -10 -24 -21 -43 -24 -43 -3 0 -11 12 -18 27 -11 23 -8 33 17 82 24 46 30
72 34 146 3 50 3 80 1 68 -6 -34 -15 -28 -40 25 -12 26 -49 88 -82 138 -51 77
-61 100 -67 152 -3 34 -13 67 -20 73 -8 6 -14 27 -14 46 0 32 -18 75 -46 113
-6 8 -15 29 -18 45 -4 17 -19 45 -33 63 -13 18 -23 38 -20 45 2 7 17 -10 33
-36 96 -158 391 -547 416 -547 10 0 57 99 113 243 29 73 42 96 54 93 9 -2 34
-7 56 -11 50 -8 36 7 -22 24 l-42 12 23 62 c27 71 40 75 117 38 23 -12 43 -20
45 -18 1 1 15 40 32 87 16 47 47 132 68 190 30 84 38 120 38 179 1 45 -3 76
-10 78 -7 2 -9 -8 -6 -27 2 -16 0 -30 -5 -30 -15 0 -58 52 -76 93 l-17 38 47
-7 c27 -4 57 -10 69 -15z m2325 -6 c-12 -20 -14 -14 -5 12 4 9 9 14 11 11 3
-2 0 -13 -6 -23z m-433 -148 c66 -171 71 -195 24 -108 -22 40 -52 89 -68 109
-58 73 -56 68 -37 107 10 20 21 32 24 29 4 -4 29 -65 57 -137z m-3903 86 c24
-54 14 -88 -30 -107 -28 -11 -53 -12 -134 -4 -66 7 -113 7 -143 1 -23 -6 -47
-10 -53 -10 -5 0 66 38 160 84 93 46 172 82 175 80 4 -2 15 -22 25 -44z m462
17 c-2 -7 -15 -53 -27 -103 -40 -161 -12 -302 78 -392 50 -51 93 -66 209 -73
115 -7 127 -13 172 -92 l28 -48 -14 -82 c-15 -93 -10 -156 18 -208 38 -71 81
-105 153 -120 49 -10 54 -14 75 -57 19 -40 54 -202 46 -211 -9 -10 -228 172
-339 280 -71 71 -132 126 -134 123 -13 -12 286 -290 422 -393 82 -62 155 -121
162 -130 7 -10 20 -54 29 -98 8 -43 18 -88 21 -99 4 -13 -13 -1 -48 32 -29 29
-58 53 -63 53 -20 0 114 -123 191 -175 80 -55 95 -73 110 -137 l6 -28 -84 0
c-82 0 -85 -1 -148 -43 -36 -23 -80 -53 -97 -66 l-33 -25 -132 22 c-165 28
-289 58 -438 107 l-115 37 -88 132 c-49 72 -142 210 -208 306 -66 96 -138 212
-161 257 -36 73 -41 91 -42 155 -1 103 8 218 17 218 4 0 7 -4 7 -9 0 -17 377
-437 408 -455 19 -11 -3 16 -162 195 -213 241 -314 378 -336 458 -14 52 -12
148 5 216 8 33 38 106 65 162 74 151 170 247 288 289 49 18 166 19 159 2z
m1831 -15 c5 -16 13 -36 17 -45 5 -13 2 -18 -9 -18 -9 0 -16 3 -16 8 0 4 -4
24 -9 45 -10 43 2 50 17 10z m2033 4 c-10 -9 -11 -8 -5 6 3 10 9 15 12 12 3
-3 0 -11 -7 -18z m-5611 -27 c0 -5 -4 -10 -10 -10 -5 0 -10 5 -10 10 0 6 5 10
10 10 6 0 10 -4 10 -10z m2225 0 c3 -5 1 -10 -4 -10 -6 0 -11 5 -11 10 0 6 2
10 4 10 3 0 8 -4 11 -10z m3375 -18 c0 -10 -6 -19 -14 -19 -11 0 -12 4 -3 19
7 10 13 18 14 18 2 0 3 -8 3 -18z m-5592 -38 c-3 -14 -5 -12 -10 9 -3 19 -2
25 4 19 6 -6 8 -18 6 -28z m5112 -159 c11 -49 18 -90 17 -92 -1 -1 -29 32 -61
74 l-59 75 29 60 29 60 13 -43 c7 -24 22 -84 32 -134z m461 142 c-10 -9 -11
-8 -5 6 3 10 9 15 12 12 3 -3 0 -11 -7 -18z m-1963 -3 c12 -8 22 -22 22 -29 0
-25 -69 12 -70 38 0 12 24 8 48 -9z m1953 -37 c-10 -9 -11 -8 -5 6 3 10 9 15
12 12 3 -3 0 -11 -7 -18z m-5534 -19 c-3 -8 -6 -5 -6 6 -1 11 2 17 5 13 3 -3
4 -12 1 -19z m10 -40 c-3 -8 -6 -5 -6 6 -1 11 2 17 5 13 3 -3 4 -12 1 -19z
m5495 -25 c-3 -16 -7 -22 -10 -15 -4 13 4 42 11 42 2 0 2 -12 -1 -27z m-956
-55 c68 -60 85 -79 90 -108 3 -19 14 -60 24 -90 22 -62 17 -76 -12 -40 -20 24
-20 24 -14 3 5 -15 3 -23 -5 -23 -17 0 -78 68 -85 96 -3 13 -21 33 -40 45 -19
11 -41 27 -49 35 -12 12 -22 8 -73 -27 -55 -38 -64 -41 -128 -41 -55 0 -64 -2
-44 -9 14 -6 77 -8 148 -5 l123 5 64 -87 c68 -91 67 -90 38 -161 l-15 -36 -24
47 c-13 25 -36 55 -51 67 -15 11 -32 24 -38 29 -5 4 -43 6 -83 4 -44 -3 -84 1
-103 8 -16 7 -32 10 -36 7 -11 -11 50 -28 137 -38 47 -5 95 -14 106 -19 21 -8
88 -119 100 -164 4 -16 -2 -32 -18 -51 l-24 -27 -27 51 c-16 28 -35 51 -43 51
-8 0 -14 4 -14 9 0 4 -29 11 -65 14 -35 3 -79 13 -96 22 -24 13 -30 13 -27 3
3 -7 50 -25 106 -39 57 -14 104 -28 106 -30 13 -14 56 -112 56 -126 0 -27 -68
-123 -87 -123 -13 0 -14 7 -9 42 4 23 11 45 16 48 4 3 -2 17 -14 31 -20 23
-29 26 -74 24 -46 -3 -100 -28 -98 -46 1 -4 -24 -55 -54 -113 -64 -125 -139
-228 -199 -273 -23 -18 -42 -36 -42 -40 -1 -4 -16 -35 -34 -68 -27 -50 -90
-197 -187 -438 -11 -27 -17 -51 -15 -53 7 -7 31 36 52 90 l18 50 13 -45 c13
-42 18 -79 11 -79 -2 0 -41 -14 -87 -30 -46 -17 -88 -30 -93 -30 -6 0 -8 46
-4 128 7 167 -2 215 -64 344 l-52 107 73 108 c39 59 80 117 90 128 10 11 88
151 175 310 86 160 175 323 197 363 35 65 46 76 96 101 32 16 107 59 167 95
61 36 116 66 123 66 8 0 52 -33 98 -72z m440 41 c9 -18 28 -43 42 -57 15 -14
20 -21 12 -17 -8 5 -3 -7 12 -26 36 -48 50 -102 46 -182 l-3 -69 -56 89 c-91
143 -98 157 -100 194 -3 31 16 99 27 99 2 0 11 -14 20 -31z m-2713 -64 c21
-41 37 -80 35 -85 -2 -5 -18 0 -35 11 -26 16 -33 28 -33 53 0 17 -4 46 -9 64
-16 54 2 36 42 -43z m-2235 9 c-3 -14 -5 -12 -10 9 -3 19 -2 25 4 19 6 -6 8
-18 6 -28z m3805 -24 c12 0 26 -18 44 -57 14 -32 39 -87 56 -123 36 -77 36
-78 11 -130 -20 -41 -34 -52 -34 -25 0 16 -132 283 -175 352 l-25 41 52 -29
c29 -16 61 -29 71 -29z m-3783 -15 c0 -8 5 -15 10 -15 6 0 9 -3 8 -7 -1 -5 6
-23 16 -41 9 -19 16 -35 14 -37 -2 -2 -18 23 -36 56 -18 32 -28 59 -22 59 5 0
10 -7 10 -15z m5394 -4 c3 -5 -1 -11 -9 -14 -9 -4 -12 -1 -8 9 6 16 10 17 17
5z m-419 -195 c21 -33 60 -108 87 -167 l49 -108 -40 -60 c-23 -33 -45 -62 -50
-65 -4 -3 -16 23 -25 57 -16 59 -45 123 -46 102 0 -6 13 -49 28 -97 l29 -86
-41 -53 -41 -52 -7 59 c-4 32 -14 118 -22 189 -9 72 -18 202 -22 290 l-6 160
34 -55 c19 -30 51 -82 73 -114z m83 128 c-4 -3 -12 5 -18 18 -12 22 -12 22 6
6 10 -10 15 -20 12 -24z m-4313 -116 l25 -37 -51 -113 c-28 -62 -70 -148 -95
-190 -24 -42 -44 -79 -44 -81 0 -3 -16 -39 -36 -80 l-36 -76 -29 33 -29 33 24
69 c23 68 93 257 166 449 21 55 41 109 45 120 5 15 10 8 21 -35 8 -30 26 -72
39 -92z m3672 120 c23 -12 47 -33 52 -46 18 -37 13 -38 -19 -4 -29 32 -31 33
-92 26 l-63 -6 35 25 c19 15 37 26 40 27 3 0 24 -10 47 -22z m932 -58 c-7 -18
-15 -27 -22 -23 -8 5 -8 8 1 11 7 2 12 12 12 23 0 10 4 19 9 19 6 0 6 -12 0
-30z m-33 -50 c0 -12 -4 -16 -9 -11 -5 5 -6 14 -3 20 10 15 12 14 12 -9z
m-5229 4 c-3 -3 -12 -4 -19 -1 -8 3 -5 6 6 6 11 1 17 -2 13 -5z m18 -44 c9
-16 13 -30 11 -30 -3 0 -12 14 -21 30 -9 17 -13 30 -11 30 3 0 12 -13 21 -30z
m5187 -25 c-8 -16 -9 -16 -15 -1 -4 10 -3 15 3 11 6 -3 10 -1 10 6 0 7 3 10 6
6 3 -3 2 -13 -4 -22z m-2933 -89 c1 -16 7 -37 15 -45 11 -14 32 -101 21 -90
-2 2 -23 37 -48 77 -42 71 -44 75 -33 119 l10 46 17 -39 c10 -21 18 -52 18
-68z m-1454 -55 c3 -11 1 -55 -4 -96 -17 -117 -14 -155 15 -214 26 -52 89
-108 161 -145 56 -28 60 -44 67 -245 4 -101 9 -195 13 -209 7 -30 8 -30 -97
40 l-85 57 6 93 c17 222 21 303 16 298 -2 -3 -8 -34 -11 -70 -12 -107 -25
-263 -26 -288 0 -20 -11 -14 -95 54 -52 43 -95 80 -95 84 0 61 50 325 76 395
5 15 4 17 -5 10 -6 -6 -27 -69 -47 -140 -19 -72 -42 -153 -50 -181 l-14 -52
-80 78 c-92 89 -89 61 -31 255 20 66 63 188 96 272 l60 151 62 -63 c34 -35 64
-73 68 -84z m-747 59 c-2 -7 -10 1 -17 16 -12 27 -11 28 4 12 10 -9 16 -21 13
-28z m5081 -12 c-23 -45 -69 -111 -81 -116 -5 -2 -8 -11 -9 -20 0 -12 -2 -13
-6 -4 -3 7 4 23 15 35 21 23 49 67 79 124 9 18 18 31 20 29 3 -2 -6 -24 -18
-48z m-5045 -34 c10 -25 -1 -29 -14 -5 -6 12 -7 21 -1 21 5 0 12 -7 15 -16z
m39 -57 c4 3 7 4 7 0 0 -18 -21 -14 -30 5 -10 21 -10 21 3 6 8 -10 17 -15 20
-11z m57 -99 c0 -6 -11 3 -25 22 -14 19 -25 36 -25 39 0 3 11 -6 25 -21 14
-15 25 -33 25 -40z m3155 -4 c89 -18 265 -74 265 -84 0 -13 -78 -150 -102
-178 -13 -15 -38 -52 -56 -83 -32 -52 -35 -54 -71 -51 -30 3 -41 10 -55 35 -9
18 -42 59 -72 92 -31 33 -62 75 -70 93 -8 17 -19 32 -24 32 -16 0 18 -60 55
-100 18 -19 50 -59 72 -87 l39 -53 -51 -55 -51 -55 -85 16 c-173 33 -402 6
-560 -67 -99 -46 -106 -40 -58 56 110 224 354 445 549 499 62 17 158 14 275
-10z m1685 10 c0 -8 -4 -12 -10 -9 -5 3 -10 1 -10 -4 0 -6 -5 -11 -10 -11 -6
0 -5 8 2 20 15 24 28 26 28 4z m-4787 -75 c22 -40 16 -36 -22 12 -20 24 -26
36 -14 29 10 -7 26 -25 36 -41z m4727 1 c-17 -22 -34 -40 -37 -40 -2 0 10 18
27 40 17 22 34 40 37 40 2 0 -10 -18 -27 -40z m-707 -34 c-3 -17 -21 -71 -40
-121 -46 -118 -171 -455 -214 -575 l-34 -95 -80 -40 c-159 -79 -197 -95 -190
-77 4 9 35 96 70 192 35 96 70 193 78 215 8 22 23 67 33 100 11 35 39 88 66
125 27 36 75 117 107 180 33 64 68 123 78 132 24 22 93 27 115 9 12 -9 15 -22
11 -45z m-3973 -32 c0 -8 -5 -12 -10 -9 -6 4 -8 11 -5 16 9 14 15 11 15 -7z
m4621 -7 c-10 -9 -11 -8 -5 6 3 10 9 15 12 12 3 -3 0 -11 -7 -18z m-4438 -63
c-21 -83 -19 -80 -37 -65 -13 11 -11 21 16 76 18 36 33 63 35 61 2 -2 -5 -34
-14 -72z m-112 -13 c18 -27 36 -48 40 -46 3 3 11 -7 17 -20 9 -20 9 -23 -3
-18 -8 3 -15 8 -15 12 0 7 -19 30 -74 89 -21 22 -25 32 -15 32 9 0 31 -22 50
-49z m3968 -8 c-5 -32 -11 -73 -15 -92 l-5 -34 -35 52 c-28 42 -34 58 -29 82
5 22 11 28 24 24 9 -3 26 2 37 10 30 22 32 19 23 -42z m531 6 c0 -6 -4 -7 -10
-4 -5 3 -10 11 -10 16 0 6 5 7 10 4 6 -3 10 -11 10 -16z m-20 -17 c0 -5 -15
-21 -32 -38 -32 -28 -32 -28 -9 -1 14 15 21 27 17 27 -4 0 -4 5 -1 10 7 12 25
13 25 2z m-2476 -43 c51 -14 96 -59 96 -96 0 -16 -19 -61 -45 -103 -25 -41
-43 -81 -40 -87 7 -20 -10 -15 -37 10 -24 22 -48 96 -48 147 0 11 -9 42 -20
70 -30 75 -28 84 18 76 20 -4 55 -12 76 -17z m1929 -87 c38 -73 62 -149 72
-227 l6 -50 -58 -40 c-85 -59 -298 -193 -301 -190 -2 1 38 115 89 251 50 137
99 272 108 301 14 48 17 51 33 37 9 -9 32 -46 51 -82z m-3813 13 c13 -14 21
-25 17 -25 -3 0 -17 11 -31 25 -14 14 -22 25 -17 25 4 0 18 -11 31 -25z m4280
21 c0 -2 -7 -7 -16 -10 -8 -3 -12 -2 -9 4 6 10 25 14 25 6z m-60 -59 c0 -2
-17 -19 -37 -38 l-37 -34 30 37 c25 31 44 46 44 35z m-4152 -42 c3 -11 0 -15
-7 -10 -6 3 -9 10 -6 15 3 4 0 11 -5 13 -6 3 -5 4 2 3 7 -1 15 -11 16 -21z
m2839 9 l22 -6 -22 -34 c-12 -19 -25 -34 -28 -34 -3 0 -11 15 -17 33 l-10 32
-1 -28 c-1 -16 23 -81 53 -145 29 -64 57 -126 61 -137 5 -11 11 -97 14 -192
l6 -172 -70 -20 c-139 -41 -430 -99 -441 -89 -2 2 -8 36 -14 76 -8 51 -9 91
-1 140 11 74 46 131 253 409 134 182 135 183 195 167z m-2783 -53 c11 -8 38
-33 60 -56 23 -22 54 -50 71 -62 16 -12 28 -24 25 -27 -3 -2 -35 22 -70 54
-36 32 -69 55 -74 52 -5 -3 -6 0 -2 6 3 6 -7 20 -24 32 -16 12 -30 29 -30 38
1 14 3 14 12 -3 6 -11 21 -27 32 -34z m56 18 c0 -16 -4 -28 -9 -25 -8 5 -3 56
5 56 2 0 4 -14 4 -31z m3163 -156 c-30 -82 -68 -188 -85 -238 -52 -153 -49
-148 -63 -85 -13 54 -12 57 25 150 61 154 119 270 147 296 14 13 27 24 28 24
2 0 -22 -66 -52 -147z m-676 115 l71 -10 -59 -82 c-33 -44 -87 -121 -121 -171
-91 -134 -82 -127 -135 -104 -24 10 -51 19 -59 19 -25 0 -48 -50 -46 -101 2
-48 1 -49 -27 -49 -25 0 -75 -29 -92 -53 -8 -11 -26 13 -34 46 -5 18 -26 40
-62 65 -95 65 -104 75 -119 131 l-14 54 31 35 c26 29 30 41 27 75 l-4 40 81
38 c176 82 337 101 562 67z m1424 -21 c-10 -9 -11 -8 -5 6 3 10 9 15 12 12 3
-3 0 -11 -7 -18z m-2112 -62 c29 -59 32 -69 21 -95 -22 -52 -37 -55 -43 -9 -3
23 -15 55 -26 70 -12 16 -21 35 -21 43 0 22 22 66 30 61 4 -2 22 -34 39 -70z
m2086 44 c-3 -8 -15 -20 -27 -28 -20 -12 -20 -11 3 17 25 31 33 34 24 11z
m-3368 -124 c78 -27 97 -41 112 -82 8 -21 29 -76 47 -123 18 -46 31 -86 29
-88 -2 -2 -13 1 -24 8 -16 8 -21 21 -23 53 l-1 42 -4 -38 c-5 -45 2 -46 -114
19 -137 77 -127 63 -135 188 l-7 110 36 -36 c19 -20 57 -43 84 -53z m3299 60
c-8 -8 -19 -15 -24 -15 -6 0 -13 -6 -15 -12 -4 -10 -6 -10 -6 -1 -1 12 36 43
52 43 5 0 2 -7 -7 -15z m-3651 -60 c18 -13 36 -21 40 -17 5 4 5 1 1 -5 -4 -8
-2 -13 6 -13 17 -1 87 -59 71 -60 -7 0 -13 3 -13 8 0 4 -20 18 -45 32 -25 14
-45 28 -45 33 0 4 -6 5 -12 1 -7 -4 -10 -3 -5 1 4 5 -5 17 -20 27 -16 10 -24
18 -19 18 5 0 24 -11 41 -25z m648 -237 c58 -82 104 -148 102 -148 -1 0 -38
15 -82 33 -70 30 -80 38 -100 78 -22 44 -93 251 -93 271 0 5 15 -12 33 -38 18
-27 81 -115 140 -196z m2912 232 c-3 -5 -12 -10 -18 -10 -7 0 -6 4 3 10 19 12
23 12 15 0z m-73 -64 c-79 -46 -87 -49 -73 -33 7 10 18 17 23 17 5 0 18 9 30
20 12 10 25 17 30 14 6 -4 1 -11 -10 -18z m-3322 -46 c0 -5 3 -9 8 -8 4 1 20
-5 36 -13 22 -12 25 -17 13 -22 -9 -3 -18 1 -21 9 -3 9 -10 13 -15 10 -4 -3
-16 3 -26 14 -10 12 -13 20 -7 20 7 0 12 -4 12 -10z m3228 -12 c-3 -7 -13 -15
-24 -17 -16 -3 -17 -1 -5 13 16 19 34 21 29 4z m-3084 -79 c-2 -5 -14 -1 -24
9 -26 22 -25 24 5 10 13 -6 22 -15 19 -19z m2996 21 c-8 -5 -19 -10 -25 -10
-5 0 -3 5 5 10 8 5 20 10 25 10 6 0 3 -5 -5 -10z m-40 -18 c0 -5 -7 -9 -15 -9
-8 0 -12 4 -9 9 3 4 9 8 15 8 5 0 9 -4 9 -8z m-1180 -23 c19 -8 37 -15 39 -16
1 -1 -3 -11 -11 -22 -8 -12 -17 -19 -20 -16 -2 2 -4 -17 -4 -43 1 -46 0 -47
-29 -45 l-30 2 26 -10 c24 -9 28 -17 35 -77 5 -37 9 -75 9 -85 0 -11 9 -25 18
-32 17 -12 17 -14 -3 -20 -13 -4 -27 -2 -34 5 -8 8 -7 10 7 5 10 -4 17 -2 17
4 0 6 -19 11 -45 11 -40 0 -45 3 -45 22 0 12 -13 33 -30 47 -40 36 -47 128
-10 138 24 6 33 32 25 77 -8 41 10 80 33 73 10 -3 33 -11 52 -18z m-1735 -7
c-3 -3 -11 0 -18 7 -9 10 -8 11 6 5 10 -3 15 -9 12 -12z m2835 -17 c-7 -8 -16
-15 -21 -15 -5 0 -6 7 -3 15 4 8 13 15 21 15 13 0 13 -3 3 -15z m-2759 -24 c2
1 21 -3 41 -10 44 -14 65 -36 47 -47 -8 -4 -9 -3 -5 4 4 7 -4 14 -21 18 -15 4
-36 14 -47 23 -10 9 -20 15 -22 14 -11 -8 -24 -2 -18 8 5 8 9 8 14 -1 4 -6 9
-11 11 -9z m2665 -26 c-20 -15 -36 -19 -36 -10 0 5 38 23 50 24 3 0 -4 -6 -14
-14z m-2476 -53 c29 -14 38 -22 25 -22 -12 0 -26 5 -33 12 -7 7 -12 9 -12 4 0
-4 -13 1 -30 11 -32 18 -42 40 -12 25 9 -5 37 -18 62 -30z m2410 22 c0 -6 -65
-34 -77 -33 -4 0 10 9 32 19 48 22 45 21 45 14z m-1097 -68 c-8 -48 3 -83 33
-111 21 -20 24 -27 14 -44 -10 -20 -19 -21 -148 -21 l-136 0 64 66 c69 70 156
144 170 144 5 0 6 -16 3 -34z m967 16 c0 -4 -17 -15 -37 -25 l-37 -16 25 24
c24 24 49 32 49 17z m-2143 -27 c4 -4 2 -5 -4 -1 -8 4 -13 2 -13 -6 0 -9 -3
-9 -8 -2 -4 6 -14 14 -22 17 -8 3 -3 5 12 4 15 -2 31 -7 35 -12z m57 -24 c4
-5 -3 -7 -14 -4 -23 6 -26 13 -6 13 8 0 17 -4 20 -9z m976 -14 c0 -1 -27 -31
-59 -66 l-59 -63 -93 8 -94 9 35 21 c19 12 62 38 94 58 51 30 69 36 118 36 32
0 58 -1 58 -3z m887 -22 c-9 -8 -18 -11 -22 -6 -3 6 3 14 12 20 24 13 29 6 10
-14z m-1771 0 c25 -19 14 -19 -22 0 -16 8 -22 15 -13 15 8 0 24 -7 35 -15z
m44 -15 c0 -5 -2 -10 -4 -10 -3 0 -8 5 -11 10 -3 6 -1 10 4 10 6 0 11 -4 11
-10z m233 -57 c-7 -2 -19 -2 -25 0 -7 3 -2 5 12 5 14 0 19 -2 13 -5z m1227 3
c0 -2 -9 -6 -20 -9 -11 -3 -18 -1 -14 4 5 9 34 13 34 5z m-1165 -16 c7 -12 -2
-12 -30 0 -19 8 -19 9 2 9 12 1 25 -3 28 -9z m765 -4 c0 -8 -7 -16 -15 -20
-13 -4 -14 -2 -5 14 13 23 20 26 20 6z m340 4 c-8 -5 -19 -10 -25 -10 -5 0 -3
5 5 10 8 5 20 10 25 10 6 0 3 -5 -5 -10z m-1013 -16 c-3 -3 -12 -4 -19 -1 -8
3 -5 6 6 6 11 1 17 -2 13 -5z m87 -12 c2 -4 -11 -6 -30 -4 -19 2 -34 6 -34 8
0 8 59 4 64 -4z m80 -4 c-2 -3 -13 -6 -24 -5 -24 2 -18 13 9 13 11 0 18 -4 15
-8z m694 5 c-10 -2 -26 -2 -35 0 -10 3 -2 5 17 5 19 0 27 -2 18 -5z m-612 -21
c-21 -2 -42 0 -47 5 -4 4 13 6 39 3 l47 -5 -39 -3z m124 -3 c0 -5 -9 -9 -20
-9 -19 0 -26 11 -14 23 8 8 34 -3 34 -14z m300 11 c0 -5 -12 -10 -27 -9 l-28
1 25 8 c14 4 26 8 28 9 1 1 2 -3 2 -9z m60 -6 c0 -2 -11 -4 -25 -4 -14 0 -25
4 -25 9 0 4 11 6 25 3 14 -2 25 -6 25 -8z m-155 -4 c3 -5 1 -10 -4 -10 -6 0
-11 5 -11 10 0 6 2 10 4 10 3 0 8 -4 11 -10z m-117 -7 c-10 -2 -26 -2 -35 0
-10 3 -2 5 17 5 19 0 27 -2 18 -5z m70 0 c-10 -2 -26 -2 -35 0 -10 3 -2 5 17
5 19 0 27 -2 18 -5z"/>
<path d="M4950 4601 c0 -16 -9 -58 -20 -94 -24 -77 -85 -151 -140 -170 -20 -7
-36 -16 -36 -22 0 -5 16 -15 36 -22 55 -19 116 -93 140 -170 11 -36 20 -79 20
-95 0 -50 24 -26 33 33 12 86 61 175 115 210 25 16 54 29 63 29 25 0 34 19 12
26 -57 17 -106 51 -133 92 -30 45 -60 128 -60 163 0 25 -11 49 -21 49 -5 0 -9
-13 -9 -29z m86 -220 c20 -23 48 -47 62 -52 l24 -9 -39 -29 c-52 -38 -82 -80
-103 -147 l-16 -54 -17 53 c-21 66 -66 128 -111 152 l-35 19 39 23 c46 27 97
101 112 162 l11 44 18 -60 c11 -34 34 -77 55 -102z"/>
<path d="M495 3668 c-11 -75 -71 -186 -120 -219 -22 -15 -53 -30 -70 -34 l-30
-7 25 -10 c61 -25 77 -35 112 -71 40 -41 72 -114 83 -190 4 -26 10 -47 14 -47
3 0 12 30 19 66 22 118 92 216 165 231 44 9 41 20 -16 46 -82 37 -134 120
-152 240 -4 26 -11 47 -15 47 -5 0 -11 -23 -15 -52z m25 -68 c0 -53 103 -190
143 -190 6 0 -5 -10 -25 -23 -48 -29 -95 -90 -110 -141 -14 -50 -28 -69 -28
-38 0 49 -68 149 -125 183 -16 11 -24 19 -18 19 41 0 143 138 143 193 0 9 5
17 10 17 6 0 10 -9 10 -20z"/>
<path d="M2227 5073 c-3 -4 -11 -46 -18 -93 -30 -207 23 -532 132 -808 16 -40
27 -78 24 -83 -3 -5 0 -6 8 -3 12 4 7 24 -24 103 -82 213 -129 449 -129 651 0
70 5 151 10 180 10 50 8 71 -3 53z"/>
<path d="M2833 4809 c71 -83 343 -424 441 -551 54 -71 100 -128 103 -128 9 0
-26 49 -146 205 -221 289 -388 491 -420 509 -9 5 1 -10 22 -35z"/>
<path d="M1909 4784 c-62 -144 -120 -379 -138 -563 -10 -97 -13 -229 -4 -156
2 17 10 84 19 150 25 200 75 406 133 554 27 68 19 81 -10 15z"/>
<path d="M1561 4525 c-31 -99 -58 -244 -72 -380 -28 -285 33 -673 147 -931 36
-83 40 -60 4 27 -47 114 -86 251 -111 399 -20 114 -23 169 -23 350 0 229 11
315 60 499 29 108 25 135 -5 36z"/>
<path d="M3058 3895 c-69 -19 -130 -51 -163 -85 -16 -16 -24 -30 -18 -30 5 0
18 9 29 21 41 46 150 87 258 99 l71 7 -65 1 c-36 0 -86 -6 -112 -13z"/>
<path d="M2117 3579 c-40 -9 -121 -48 -115 -54 2 -3 33 7 68 22 49 20 84 26
142 27 42 1 74 4 71 9 -6 10 -118 7 -166 -4z"/>
<path d="M3420 3485 c-20 -24 -6 -28 15 -5 10 11 13 20 8 20 -6 0 -16 -7 -23
-15z"/>
<path d="M3320 3465 c-8 -9 -8 -15 -2 -15 12 0 26 19 19 26 -2 2 -10 -2 -17
-11z"/>
<path d="M2040 3195 c-8 -9 -8 -15 -2 -15 12 0 26 19 19 26 -2 2 -10 -2 -17
-11z"/>
<path d="M2630 3188 c0 -9 5 -20 11 -23 17 -11 20 0 4 21 -13 17 -14 17 -15 2z"/>
<path d="M2056 3044 c-9 -22 3 -32 14 -14 12 19 12 30 1 30 -5 0 -12 -7 -15
-16z"/>
<path d="M2880 2949 c-41 -21 -71 -39 -65 -39 20 0 144 52 155 66 20 23 -7 15
-90 -27z"/>
<path d="M2720 2900 c-19 -5 -38 -6 -42 -4 -3 2 -10 -1 -14 -7 -5 -9 8 -10 51
-5 62 7 112 26 65 25 -14 -1 -41 -5 -60 -9z"/>
<path d="M1850 3080 c0 -6 7 -13 15 -17 24 -9 27 1 5 15 -13 8 -20 8 -20 2z"/>
<path d="M5290 2605 c7 -9 15 -13 17 -11 7 7 -7 26 -19 26 -6 0 -6 -6 2 -15z"/>
<path d="M3482 2895 c0 -16 2 -22 5 -12 2 9 2 23 0 30 -3 6 -5 -1 -5 -18z"/>
<path d="M2190 2582 c0 -19 41 -127 52 -137 8 -7 9 -5 3 10 -4 11 -16 46 -27
78 -18 53 -28 70 -28 49z"/>
<path d="M4021 2064 c0 -11 3 -14 6 -6 3 7 2 16 -1 19 -3 4 -6 -2 -5 -13z"/>
<path d="M2000 1577 c0 -13 279 -221 287 -214 2 3 -40 38 -94 78 -54 40 -116
87 -137 106 -34 29 -56 40 -56 30z"/>
<path d="M2085 634 c90 -76 290 -191 415 -238 66 -24 282 -79 354 -90 71 -10
23 12 -64 29 -211 42 -452 142 -626 260 -98 67 -132 83 -79 39z"/>
<path d="M4324 1716 c-10 -8 -17 -17 -14 -19 3 -3 16 3 30 13 29 22 14 27 -16
6z"/>
<path d="M4366 1595 c-31 -24 -11 -28 25 -6 26 16 29 21 14 21 -11 -1 -29 -7
-39 -15z"/>
<path d="M5902 3110 c0 -14 2 -19 5 -12 2 6 2 18 0 25 -3 6 -5 1 -5 -13z"/>
<path d="M5902 2850 c0 -14 2 -19 5 -12 2 6 2 18 0 25 -3 6 -5 1 -5 -13z"/>
</g>
</svg>
